ISO-10303-21;
HEADER;
/* Generated by software containing ST-Developer
 * from STEP Tools, Inc. (www.steptools.com) 
 */

FILE_DESCRIPTION(
/* description */ ('STEP AP242 Edition 2'),
/* implementation_level */ '2;1');

FILE_NAME(
/* name */ 'boardkey_casetop.step',
/* time_stamp */ '2026-02-18T11:21:24-05:00',
/* author */ (''),
/* organization */ (''),
/* preprocessor_version */ 'ST-DEVELOPER v20.1',
/* originating_system */ 'Autodesk Translation Framework v14.21.0.0',
/* authorisation */ '');

FILE_SCHEMA (('AUTOMOTIVE_DESIGN { 1 0 10303 214 3 1 1 }'));
ENDSEC;

DATA;
#10=MECHANICAL_DESIGN_GEOMETRIC_PRESENTATION_REPRESENTATION('',(#13),#1075);
#11=SHAPE_REPRESENTATION_RELATIONSHIP('SRR','None',#1081,#12);
#12=ADVANCED_BREP_SHAPE_REPRESENTATION('',(#14),#1074);
#13=STYLED_ITEM('',(#1091),#14);
#14=MANIFOLD_SOLID_BREP('Body1',#559);
#15=ELLIPSE('',#627,0.00506211418282914,0.00475);
#16=ELLIPSE('',#628,0.00506211418282914,0.00475);
#17=ELLIPSE('',#630,0.00506211418282914,0.00475);
#18=ELLIPSE('',#632,0.00506211418282913,0.00475);
#19=ELLIPSE('',#633,0.00506211418282914,0.00475);
#20=ELLIPSE('',#634,0.00506211418282913,0.00475);
#21=ELLIPSE('',#636,0.00506211418282913,0.00475);
#22=ELLIPSE('',#638,0.00506211418282913,0.00475);
#23=(
BOUNDED_SURFACE()
B_SPLINE_SURFACE(3,2,((#952,#953,#954),(#955,#956,#957),(#958,#959,#960),
(#961,#962,#963),(#964,#965,#966),(#967,#968,#969),(#970,#971,#972),(#973,
#974,#975),(#976,#977,#978)),.UNSPECIFIED.,.F.,.F.,.F.)
B_SPLINE_SURFACE_WITH_KNOTS((4,1,1,1,1,1,4),(3,3),(6.28294626152528,6.47953484802895,
6.67588438887831,6.87223392972767,7.06858347057703,7.46128255227576,7.85398163397448),
(-0.000239045654309005,1.0001623568831),.UNSPECIFIED.)
GEOMETRIC_REPRESENTATION_ITEM()
RATIONAL_B_SPLINE_SURFACE(((1.00014006316588,0.706989211041655,1.00009512189465),
(1.00014006858342,0.706977877588594,1.0000951255739),(1.0001356264278,0.71627082420806,
1.00009210874748),(1.00011736891785,0.754465358520116,1.00007970942089),
(1.0000917987577,0.807957886356631,1.00006234381256),(1.00005437237565,
0.886253515776707,1.0000369262208),(1.00001266585162,0.973503160860526,
1.00000860183187),(1.,1.,1.),(1.,1.,1.)))
REPRESENTATION_ITEM('')
SURFACE()
);
#24=(
BOUNDED_SURFACE()
B_SPLINE_SURFACE(3,2,((#985,#986,#987),(#988,#989,#990),(#991,#992,#993),
(#994,#995,#996),(#997,#998,#999),(#1000,#1001,#1002),(#1003,#1004,#1005),
(#1006,#1007,#1008),(#1009,#1010,#1011)),.UNSPECIFIED.,.F.,.F.,.F.)
B_SPLINE_SURFACE_WITH_KNOTS((4,1,1,1,1,1,4),(3,3),(6.28300106452258,6.47953484802895,
6.67588438887831,6.87223392972767,7.06858347057703,7.46128255227576,7.85398163397448),
(-0.000184242657011589,1.00018424264122),.UNSPECIFIED.)
GEOMETRIC_REPRESENTATION_ITEM()
RATIONAL_B_SPLINE_SURFACE(((1.00010794672991,0.706998846735725,1.00010794672066),
(1.00010794994704,0.706990114447034,1.00010794993779),(1.00010452602277,
0.716283714726617,1.00010452601382),(1.0000904562626,0.754473439987313,
1.00009045625484),(1.00007074933197,0.807964207183838,1.00007074932591),
(1.00004190480734,0.886257259600697,1.00004190480375),(1.0000097615759,
0.973504032971015,1.00000976157506),(1.,1.,1.),(1.,1.,1.)))
REPRESENTATION_ITEM('')
SURFACE()
);
#25=(
BOUNDED_SURFACE()
B_SPLINE_SURFACE(3,2,((#1013,#1014,#1015),(#1016,#1017,#1018),(#1019,#1020,
#1021),(#1022,#1023,#1024),(#1025,#1026,#1027),(#1028,#1029,#1030),(#1031,
#1032,#1033),(#1034,#1035,#1036),(#1037,#1038,#1039)),.UNSPECIFIED.,.F.,
 .F.,.F.)
B_SPLINE_SURFACE_WITH_KNOTS((4,1,1,1,1,1,4),(3,3),(6.2830010645226,6.47953484802895,
6.67588438887831,6.87223392972767,7.06858347057703,7.46128255227576,7.85398163397448),
(-0.000184242656988339,1.00018424260653),.UNSPECIFIED.)
GEOMETRIC_REPRESENTATION_ITEM()
RATIONAL_B_SPLINE_SURFACE(((1.0001079467299,0.706998846745898,1.00010794670033),
(1.00010794994703,0.706990114457208,1.00010794991746),(1.00010452602276,
0.716283714736469,1.00010452599413),(1.00009045626258,0.754473439995837,
1.00009045623781),(1.00007074933197,0.807964207190505,1.00007074931258),
(1.00004190480733,0.886257259604648,1.00004190479585),(1.0000097615759,
0.973504032971935,1.00000976157323),(1.,1.,1.),(1.,1.,1.)))
REPRESENTATION_ITEM('')
SURFACE()
);
#26=(
BOUNDED_SURFACE()
B_SPLINE_SURFACE(3,2,((#1045,#1046,#1047),(#1048,#1049,#1050),(#1051,#1052,
#1053),(#1054,#1055,#1056),(#1057,#1058,#1059),(#1060,#1061,#1062),(#1063,
#1064,#1065),(#1066,#1067,#1068),(#1069,#1070,#1071)),.UNSPECIFIED.,.F.,
 .F.,.F.)
B_SPLINE_SURFACE_WITH_KNOTS((4,1,1,1,1,1,4),(3,3),(6.28300106452226,6.47953484802895,
6.67588438887831,6.87223392972767,7.06858347057703,7.46128255227576,7.85398163397448),
(-0.00018424264202272,1.00018424265733),.UNSPECIFIED.)
GEOMETRIC_REPRESENTATION_ITEM()
RATIONAL_B_SPLINE_SURFACE(((1.00010794672113,0.706998846735396,1.0001079467301),
(1.00010794993826,0.706990114446689,1.00010794994723),(1.00010452601427,
0.716283714726278,1.00010452602296),(1.00009045625524,0.754473439987037,
1.00009045626276),(1.00007074932622,0.807964207183622,1.0000707493321),
(1.00004190480393,0.886257259600571,1.00004190480741),(1.00000976157511,
0.973504032970984,1.00000976157592),(1.,1.,1.),(1.,1.,1.)))
REPRESENTATION_ITEM('')
SURFACE()
);
#27=FACE_BOUND('',#128,.T.);
#28=FACE_BOUND('',#130,.T.);
#29=FACE_BOUND('',#131,.T.);
#30=FACE_BOUND('',#132,.T.);
#31=FACE_BOUND('',#133,.T.);
#32=FACE_BOUND('',#134,.T.);
#33=FACE_BOUND('',#135,.T.);
#34=FACE_BOUND('',#136,.T.);
#35=FACE_BOUND('',#137,.T.);
#36=FACE_BOUND('',#138,.T.);
#37=CIRCLE('',#578,0.003);
#38=CIRCLE('',#579,0.003);
#39=CIRCLE('',#582,0.00300000000000005);
#40=CIRCLE('',#583,0.00300000000000005);
#41=CIRCLE('',#586,0.00300000000000005);
#42=CIRCLE('',#587,0.00300000000000005);
#43=CIRCLE('',#590,0.003);
#44=CIRCLE('',#591,0.003);
#45=CIRCLE('',#595,0.001425);
#46=CIRCLE('',#596,0.001425);
#47=CIRCLE('',#597,0.001425);
#48=CIRCLE('',#598,0.001425);
#49=CIRCLE('',#599,0.001425);
#50=CIRCLE('',#600,0.001425);
#51=CIRCLE('',#601,0.001425);
#52=CIRCLE('',#602,0.001425);
#53=CIRCLE('',#604,0.001425);
#54=CIRCLE('',#607,0.001425);
#55=CIRCLE('',#610,0.001425);
#56=CIRCLE('',#613,0.001425);
#57=CIRCLE('',#616,0.001425);
#58=CIRCLE('',#619,0.001425);
#59=CIRCLE('',#622,0.001425);
#60=CIRCLE('',#625,0.001425);
#61=CYLINDRICAL_SURFACE('',#577,0.003);
#62=CYLINDRICAL_SURFACE('',#581,0.00300000000000005);
#63=CYLINDRICAL_SURFACE('',#585,0.00300000000000005);
#64=CYLINDRICAL_SURFACE('',#589,0.003);
#65=CYLINDRICAL_SURFACE('',#603,0.001425);
#66=CYLINDRICAL_SURFACE('',#606,0.001425);
#67=CYLINDRICAL_SURFACE('',#609,0.001425);
#68=CYLINDRICAL_SURFACE('',#612,0.001425);
#69=CYLINDRICAL_SURFACE('',#615,0.001425);
#70=CYLINDRICAL_SURFACE('',#618,0.001425);
#71=CYLINDRICAL_SURFACE('',#621,0.001425);
#72=CYLINDRICAL_SURFACE('',#624,0.001425);
#73=CYLINDRICAL_SURFACE('',#629,0.00475);
#74=CYLINDRICAL_SURFACE('',#631,0.00475);
#75=CYLINDRICAL_SURFACE('',#635,0.00475);
#76=CYLINDRICAL_SURFACE('',#637,0.00475);
#77=FACE_OUTER_BOUND('',#115,.T.);
#78=FACE_OUTER_BOUND('',#116,.T.);
#79=FACE_OUTER_BOUND('',#117,.T.);
#80=FACE_OUTER_BOUND('',#118,.T.);
#81=FACE_OUTER_BOUND('',#119,.T.);
#82=FACE_OUTER_BOUND('',#120,.T.);
#83=FACE_OUTER_BOUND('',#121,.T.);
#84=FACE_OUTER_BOUND('',#122,.T.);
#85=FACE_OUTER_BOUND('',#123,.T.);
#86=FACE_OUTER_BOUND('',#124,.T.);
#87=FACE_OUTER_BOUND('',#125,.T.);
#88=FACE_OUTER_BOUND('',#126,.T.);
#89=FACE_OUTER_BOUND('',#127,.T.);
#90=FACE_OUTER_BOUND('',#129,.T.);
#91=FACE_OUTER_BOUND('',#139,.T.);
#92=FACE_OUTER_BOUND('',#140,.T.);
#93=FACE_OUTER_BOUND('',#141,.T.);
#94=FACE_OUTER_BOUND('',#142,.T.);
#95=FACE_OUTER_BOUND('',#143,.T.);
#96=FACE_OUTER_BOUND('',#144,.T.);
#97=FACE_OUTER_BOUND('',#145,.T.);
#98=FACE_OUTER_BOUND('',#146,.T.);
#99=FACE_OUTER_BOUND('',#147,.T.);
#100=FACE_OUTER_BOUND('',#148,.T.);
#101=FACE_OUTER_BOUND('',#149,.T.);
#102=FACE_OUTER_BOUND('',#150,.T.);
#103=FACE_OUTER_BOUND('',#151,.T.);
#104=FACE_OUTER_BOUND('',#152,.T.);
#105=FACE_OUTER_BOUND('',#153,.T.);
#106=FACE_OUTER_BOUND('',#154,.T.);
#107=FACE_OUTER_BOUND('',#155,.T.);
#108=FACE_OUTER_BOUND('',#156,.T.);
#109=FACE_OUTER_BOUND('',#157,.T.);
#110=FACE_OUTER_BOUND('',#158,.T.);
#111=FACE_OUTER_BOUND('',#159,.T.);
#112=FACE_OUTER_BOUND('',#160,.T.);
#113=FACE_OUTER_BOUND('',#161,.T.);
#114=FACE_OUTER_BOUND('',#162,.T.);
#115=EDGE_LOOP('',(#359,#360,#361,#362));
#116=EDGE_LOOP('',(#363,#364,#365,#366));
#117=EDGE_LOOP('',(#367,#368,#369,#370));
#118=EDGE_LOOP('',(#371,#372,#373,#374));
#119=EDGE_LOOP('',(#375,#376,#377,#378));
#120=EDGE_LOOP('',(#379,#380,#381,#382));
#121=EDGE_LOOP('',(#383,#384,#385,#386));
#122=EDGE_LOOP('',(#387,#388,#389,#390));
#123=EDGE_LOOP('',(#391,#392,#393,#394));
#124=EDGE_LOOP('',(#395,#396,#397,#398));
#125=EDGE_LOOP('',(#399,#400,#401,#402));
#126=EDGE_LOOP('',(#403,#404,#405,#406));
#127=EDGE_LOOP('',(#407,#408,#409,#410));
#128=EDGE_LOOP('',(#411,#412,#413,#414));
#129=EDGE_LOOP('',(#415,#416,#417,#418,#419,#420,#421,#422));
#130=EDGE_LOOP('',(#423,#424,#425,#426));
#131=EDGE_LOOP('',(#427));
#132=EDGE_LOOP('',(#428));
#133=EDGE_LOOP('',(#429));
#134=EDGE_LOOP('',(#430));
#135=EDGE_LOOP('',(#431));
#136=EDGE_LOOP('',(#432));
#137=EDGE_LOOP('',(#433));
#138=EDGE_LOOP('',(#434));
#139=EDGE_LOOP('',(#435,#436,#437,#438));
#140=EDGE_LOOP('',(#439));
#141=EDGE_LOOP('',(#440,#441,#442,#443));
#142=EDGE_LOOP('',(#444));
#143=EDGE_LOOP('',(#445,#446,#447,#448));
#144=EDGE_LOOP('',(#449));
#145=EDGE_LOOP('',(#450,#451,#452,#453));
#146=EDGE_LOOP('',(#454));
#147=EDGE_LOOP('',(#455,#456,#457,#458));
#148=EDGE_LOOP('',(#459));
#149=EDGE_LOOP('',(#460,#461,#462,#463));
#150=EDGE_LOOP('',(#464));
#151=EDGE_LOOP('',(#465,#466,#467,#468));
#152=EDGE_LOOP('',(#469));
#153=EDGE_LOOP('',(#470,#471,#472,#473));
#154=EDGE_LOOP('',(#474));
#155=EDGE_LOOP('',(#475,#476,#477));
#156=EDGE_LOOP('',(#478,#479,#480,#481));
#157=EDGE_LOOP('',(#482,#483,#484,#485));
#158=EDGE_LOOP('',(#486,#487,#488));
#159=EDGE_LOOP('',(#489,#490,#491));
#160=EDGE_LOOP('',(#492,#493,#494,#495));
#161=EDGE_LOOP('',(#496,#497,#498,#499));
#162=EDGE_LOOP('',(#500,#501,#502));
#163=LINE('',#817,#203);
#164=LINE('',#819,#204);
#165=LINE('',#821,#205);
#166=LINE('',#822,#206);
#167=LINE('',#825,#207);
#168=LINE('',#827,#208);
#169=LINE('',#828,#209);
#170=LINE('',#831,#210);
#171=LINE('',#833,#211);
#172=LINE('',#834,#212);
#173=LINE('',#838,#213);
#174=LINE('',#840,#214);
#175=LINE('',#842,#215);
#176=LINE('',#843,#216);
#177=LINE('',#847,#217);
#178=LINE('',#853,#218);
#179=LINE('',#854,#219);
#180=LINE('',#855,#220);
#181=LINE('',#859,#221);
#182=LINE('',#865,#222);
#183=LINE('',#866,#223);
#184=LINE('',#867,#224);
#185=LINE('',#871,#225);
#186=LINE('',#877,#226);
#187=LINE('',#878,#227);
#188=LINE('',#879,#228);
#189=LINE('',#884,#229);
#190=LINE('',#885,#230);
#191=LINE('',#889,#231);
#192=LINE('',#891,#232);
#193=LINE('',#893,#233);
#194=LINE('',#894,#234);
#195=LINE('',#914,#235);
#196=LINE('',#919,#236);
#197=LINE('',#924,#237);
#198=LINE('',#929,#238);
#199=LINE('',#934,#239);
#200=LINE('',#939,#240);
#201=LINE('',#944,#241);
#202=LINE('',#949,#242);
#203=VECTOR('',#643,1.);
#204=VECTOR('',#644,1.);
#205=VECTOR('',#645,1.);
#206=VECTOR('',#646,1.);
#207=VECTOR('',#649,1.);
#208=VECTOR('',#650,1.);
#209=VECTOR('',#651,1.);
#210=VECTOR('',#654,1.);
#211=VECTOR('',#655,1.);
#212=VECTOR('',#656,1.);
#213=VECTOR('',#659,1.);
#214=VECTOR('',#660,1.);
#215=VECTOR('',#661,1.);
#216=VECTOR('',#662,1.);
#217=VECTOR('',#665,1.);
#218=VECTOR('',#672,1.);
#219=VECTOR('',#673,1.);
#220=VECTOR('',#674,1.);
#221=VECTOR('',#677,1.);
#222=VECTOR('',#684,1.);
#223=VECTOR('',#685,1.);
#224=VECTOR('',#686,1.);
#225=VECTOR('',#689,1.);
#226=VECTOR('',#696,1.);
#227=VECTOR('',#697,1.);
#228=VECTOR('',#698,1.);
#229=VECTOR('',#707,1.);
#230=VECTOR('',#708,1.);
#231=VECTOR('',#711,1.);
#232=VECTOR('',#712,1.);
#233=VECTOR('',#713,1.);
#234=VECTOR('',#714,1.);
#235=VECTOR('',#735,0.001425);
#236=VECTOR('',#742,0.001425);
#237=VECTOR('',#749,0.001425);
#238=VECTOR('',#756,0.001425);
#239=VECTOR('',#763,0.001425);
#240=VECTOR('',#770,0.001425);
#241=VECTOR('',#777,0.001425);
#242=VECTOR('',#784,0.001425);
#243=VERTEX_POINT('',#815);
#244=VERTEX_POINT('',#816);
#245=VERTEX_POINT('',#818);
#246=VERTEX_POINT('',#820);
#247=VERTEX_POINT('',#824);
#248=VERTEX_POINT('',#826);
#249=VERTEX_POINT('',#830);
#250=VERTEX_POINT('',#832);
#251=VERTEX_POINT('',#836);
#252=VERTEX_POINT('',#837);
#253=VERTEX_POINT('',#839);
#254=VERTEX_POINT('',#841);
#255=VERTEX_POINT('',#845);
#256=VERTEX_POINT('',#846);
#257=VERTEX_POINT('',#851);
#258=VERTEX_POINT('',#852);
#259=VERTEX_POINT('',#857);
#260=VERTEX_POINT('',#858);
#261=VERTEX_POINT('',#863);
#262=VERTEX_POINT('',#864);
#263=VERTEX_POINT('',#869);
#264=VERTEX_POINT('',#870);
#265=VERTEX_POINT('',#875);
#266=VERTEX_POINT('',#876);
#267=VERTEX_POINT('',#887);
#268=VERTEX_POINT('',#888);
#269=VERTEX_POINT('',#890);
#270=VERTEX_POINT('',#892);
#271=VERTEX_POINT('',#896);
#272=VERTEX_POINT('',#898);
#273=VERTEX_POINT('',#900);
#274=VERTEX_POINT('',#902);
#275=VERTEX_POINT('',#904);
#276=VERTEX_POINT('',#906);
#277=VERTEX_POINT('',#908);
#278=VERTEX_POINT('',#910);
#279=VERTEX_POINT('',#913);
#280=VERTEX_POINT('',#918);
#281=VERTEX_POINT('',#923);
#282=VERTEX_POINT('',#928);
#283=VERTEX_POINT('',#933);
#284=VERTEX_POINT('',#938);
#285=VERTEX_POINT('',#943);
#286=VERTEX_POINT('',#948);
#287=EDGE_CURVE('',#243,#244,#163,.T.);
#288=EDGE_CURVE('',#245,#243,#164,.T.);
#289=EDGE_CURVE('',#245,#246,#165,.T.);
#290=EDGE_CURVE('',#246,#244,#166,.T.);
#291=EDGE_CURVE('',#243,#247,#167,.T.);
#292=EDGE_CURVE('',#248,#247,#168,.T.);
#293=EDGE_CURVE('',#245,#248,#169,.T.);
#294=EDGE_CURVE('',#247,#249,#170,.T.);
#295=EDGE_CURVE('',#250,#249,#171,.T.);
#296=EDGE_CURVE('',#248,#250,#172,.T.);
#297=EDGE_CURVE('',#251,#252,#173,.T.);
#298=EDGE_CURVE('',#251,#253,#174,.T.);
#299=EDGE_CURVE('',#253,#254,#175,.T.);
#300=EDGE_CURVE('',#252,#254,#176,.T.);
#301=EDGE_CURVE('',#255,#256,#177,.T.);
#302=EDGE_CURVE('',#255,#251,#37,.T.);
#303=EDGE_CURVE('',#252,#256,#38,.T.);
#304=EDGE_CURVE('',#257,#258,#178,.T.);
#305=EDGE_CURVE('',#257,#255,#179,.T.);
#306=EDGE_CURVE('',#258,#256,#180,.T.);
#307=EDGE_CURVE('',#259,#260,#181,.T.);
#308=EDGE_CURVE('',#259,#257,#39,.T.);
#309=EDGE_CURVE('',#258,#260,#40,.T.);
#310=EDGE_CURVE('',#261,#262,#182,.T.);
#311=EDGE_CURVE('',#261,#259,#183,.F.);
#312=EDGE_CURVE('',#260,#262,#184,.T.);
#313=EDGE_CURVE('',#263,#264,#185,.T.);
#314=EDGE_CURVE('',#263,#261,#41,.T.);
#315=EDGE_CURVE('',#262,#264,#42,.T.);
#316=EDGE_CURVE('',#265,#266,#186,.T.);
#317=EDGE_CURVE('',#265,#263,#187,.F.);
#318=EDGE_CURVE('',#264,#266,#188,.T.);
#319=EDGE_CURVE('',#253,#265,#43,.T.);
#320=EDGE_CURVE('',#266,#254,#44,.T.);
#321=EDGE_CURVE('',#244,#249,#189,.T.);
#322=EDGE_CURVE('',#246,#250,#190,.T.);
#323=EDGE_CURVE('',#267,#268,#191,.F.);
#324=EDGE_CURVE('',#268,#269,#192,.F.);
#325=EDGE_CURVE('',#269,#270,#193,.T.);
#326=EDGE_CURVE('',#270,#267,#194,.T.);
#327=EDGE_CURVE('',#271,#271,#45,.T.);
#328=EDGE_CURVE('',#272,#272,#46,.T.);
#329=EDGE_CURVE('',#273,#273,#47,.T.);
#330=EDGE_CURVE('',#274,#274,#48,.T.);
#331=EDGE_CURVE('',#275,#275,#49,.T.);
#332=EDGE_CURVE('',#276,#276,#50,.T.);
#333=EDGE_CURVE('',#277,#277,#51,.T.);
#334=EDGE_CURVE('',#278,#278,#52,.T.);
#335=EDGE_CURVE('',#278,#279,#195,.T.);
#336=EDGE_CURVE('',#279,#279,#53,.T.);
#337=EDGE_CURVE('',#277,#280,#196,.T.);
#338=EDGE_CURVE('',#280,#280,#54,.T.);
#339=EDGE_CURVE('',#276,#281,#197,.T.);
#340=EDGE_CURVE('',#281,#281,#55,.T.);
#341=EDGE_CURVE('',#275,#282,#198,.T.);
#342=EDGE_CURVE('',#282,#282,#56,.T.);
#343=EDGE_CURVE('',#274,#283,#199,.T.);
#344=EDGE_CURVE('',#283,#283,#57,.T.);
#345=EDGE_CURVE('',#273,#284,#200,.T.);
#346=EDGE_CURVE('',#284,#284,#58,.T.);
#347=EDGE_CURVE('',#272,#285,#201,.T.);
#348=EDGE_CURVE('',#285,#285,#59,.T.);
#349=EDGE_CURVE('',#271,#286,#202,.T.);
#350=EDGE_CURVE('',#286,#286,#60,.T.);
#351=EDGE_CURVE('',#265,#267,#15,.F.);
#352=EDGE_CURVE('',#267,#253,#16,.T.);
#353=EDGE_CURVE('',#268,#251,#17,.T.);
#354=EDGE_CURVE('',#263,#270,#18,.F.);
#355=EDGE_CURVE('',#268,#255,#19,.T.);
#356=EDGE_CURVE('',#261,#270,#20,.F.);
#357=EDGE_CURVE('',#269,#257,#21,.T.);
#358=EDGE_CURVE('',#259,#269,#22,.F.);
#359=ORIENTED_EDGE('',*,*,#287,.F.);
#360=ORIENTED_EDGE('',*,*,#288,.F.);
#361=ORIENTED_EDGE('',*,*,#289,.T.);
#362=ORIENTED_EDGE('',*,*,#290,.T.);
#363=ORIENTED_EDGE('',*,*,#291,.T.);
#364=ORIENTED_EDGE('',*,*,#292,.F.);
#365=ORIENTED_EDGE('',*,*,#293,.F.);
#366=ORIENTED_EDGE('',*,*,#288,.T.);
#367=ORIENTED_EDGE('',*,*,#294,.T.);
#368=ORIENTED_EDGE('',*,*,#295,.F.);
#369=ORIENTED_EDGE('',*,*,#296,.F.);
#370=ORIENTED_EDGE('',*,*,#292,.T.);
#371=ORIENTED_EDGE('',*,*,#297,.F.);
#372=ORIENTED_EDGE('',*,*,#298,.T.);
#373=ORIENTED_EDGE('',*,*,#299,.T.);
#374=ORIENTED_EDGE('',*,*,#300,.F.);
#375=ORIENTED_EDGE('',*,*,#301,.F.);
#376=ORIENTED_EDGE('',*,*,#302,.T.);
#377=ORIENTED_EDGE('',*,*,#297,.T.);
#378=ORIENTED_EDGE('',*,*,#303,.T.);
#379=ORIENTED_EDGE('',*,*,#304,.F.);
#380=ORIENTED_EDGE('',*,*,#305,.T.);
#381=ORIENTED_EDGE('',*,*,#301,.T.);
#382=ORIENTED_EDGE('',*,*,#306,.F.);
#383=ORIENTED_EDGE('',*,*,#307,.F.);
#384=ORIENTED_EDGE('',*,*,#308,.T.);
#385=ORIENTED_EDGE('',*,*,#304,.T.);
#386=ORIENTED_EDGE('',*,*,#309,.T.);
#387=ORIENTED_EDGE('',*,*,#310,.F.);
#388=ORIENTED_EDGE('',*,*,#311,.T.);
#389=ORIENTED_EDGE('',*,*,#307,.T.);
#390=ORIENTED_EDGE('',*,*,#312,.T.);
#391=ORIENTED_EDGE('',*,*,#313,.F.);
#392=ORIENTED_EDGE('',*,*,#314,.T.);
#393=ORIENTED_EDGE('',*,*,#310,.T.);
#394=ORIENTED_EDGE('',*,*,#315,.T.);
#395=ORIENTED_EDGE('',*,*,#316,.F.);
#396=ORIENTED_EDGE('',*,*,#317,.T.);
#397=ORIENTED_EDGE('',*,*,#313,.T.);
#398=ORIENTED_EDGE('',*,*,#318,.T.);
#399=ORIENTED_EDGE('',*,*,#299,.F.);
#400=ORIENTED_EDGE('',*,*,#319,.T.);
#401=ORIENTED_EDGE('',*,*,#316,.T.);
#402=ORIENTED_EDGE('',*,*,#320,.T.);
#403=ORIENTED_EDGE('',*,*,#321,.F.);
#404=ORIENTED_EDGE('',*,*,#290,.F.);
#405=ORIENTED_EDGE('',*,*,#322,.T.);
#406=ORIENTED_EDGE('',*,*,#295,.T.);
#407=ORIENTED_EDGE('',*,*,#323,.T.);
#408=ORIENTED_EDGE('',*,*,#324,.T.);
#409=ORIENTED_EDGE('',*,*,#325,.T.);
#410=ORIENTED_EDGE('',*,*,#326,.T.);
#411=ORIENTED_EDGE('',*,*,#289,.F.);
#412=ORIENTED_EDGE('',*,*,#293,.T.);
#413=ORIENTED_EDGE('',*,*,#296,.T.);
#414=ORIENTED_EDGE('',*,*,#322,.F.);
#415=ORIENTED_EDGE('',*,*,#300,.T.);
#416=ORIENTED_EDGE('',*,*,#320,.F.);
#417=ORIENTED_EDGE('',*,*,#318,.F.);
#418=ORIENTED_EDGE('',*,*,#315,.F.);
#419=ORIENTED_EDGE('',*,*,#312,.F.);
#420=ORIENTED_EDGE('',*,*,#309,.F.);
#421=ORIENTED_EDGE('',*,*,#306,.T.);
#422=ORIENTED_EDGE('',*,*,#303,.F.);
#423=ORIENTED_EDGE('',*,*,#287,.T.);
#424=ORIENTED_EDGE('',*,*,#321,.T.);
#425=ORIENTED_EDGE('',*,*,#294,.F.);
#426=ORIENTED_EDGE('',*,*,#291,.F.);
#427=ORIENTED_EDGE('',*,*,#327,.T.);
#428=ORIENTED_EDGE('',*,*,#328,.T.);
#429=ORIENTED_EDGE('',*,*,#329,.T.);
#430=ORIENTED_EDGE('',*,*,#330,.T.);
#431=ORIENTED_EDGE('',*,*,#331,.T.);
#432=ORIENTED_EDGE('',*,*,#332,.T.);
#433=ORIENTED_EDGE('',*,*,#333,.T.);
#434=ORIENTED_EDGE('',*,*,#334,.T.);
#435=ORIENTED_EDGE('',*,*,#334,.F.);
#436=ORIENTED_EDGE('',*,*,#335,.T.);
#437=ORIENTED_EDGE('',*,*,#336,.T.);
#438=ORIENTED_EDGE('',*,*,#335,.F.);
#439=ORIENTED_EDGE('',*,*,#336,.F.);
#440=ORIENTED_EDGE('',*,*,#333,.F.);
#441=ORIENTED_EDGE('',*,*,#337,.T.);
#442=ORIENTED_EDGE('',*,*,#338,.T.);
#443=ORIENTED_EDGE('',*,*,#337,.F.);
#444=ORIENTED_EDGE('',*,*,#338,.F.);
#445=ORIENTED_EDGE('',*,*,#332,.F.);
#446=ORIENTED_EDGE('',*,*,#339,.T.);
#447=ORIENTED_EDGE('',*,*,#340,.T.);
#448=ORIENTED_EDGE('',*,*,#339,.F.);
#449=ORIENTED_EDGE('',*,*,#340,.F.);
#450=ORIENTED_EDGE('',*,*,#331,.F.);
#451=ORIENTED_EDGE('',*,*,#341,.T.);
#452=ORIENTED_EDGE('',*,*,#342,.T.);
#453=ORIENTED_EDGE('',*,*,#341,.F.);
#454=ORIENTED_EDGE('',*,*,#342,.F.);
#455=ORIENTED_EDGE('',*,*,#330,.F.);
#456=ORIENTED_EDGE('',*,*,#343,.T.);
#457=ORIENTED_EDGE('',*,*,#344,.T.);
#458=ORIENTED_EDGE('',*,*,#343,.F.);
#459=ORIENTED_EDGE('',*,*,#344,.F.);
#460=ORIENTED_EDGE('',*,*,#329,.F.);
#461=ORIENTED_EDGE('',*,*,#345,.T.);
#462=ORIENTED_EDGE('',*,*,#346,.T.);
#463=ORIENTED_EDGE('',*,*,#345,.F.);
#464=ORIENTED_EDGE('',*,*,#346,.F.);
#465=ORIENTED_EDGE('',*,*,#328,.F.);
#466=ORIENTED_EDGE('',*,*,#347,.T.);
#467=ORIENTED_EDGE('',*,*,#348,.T.);
#468=ORIENTED_EDGE('',*,*,#347,.F.);
#469=ORIENTED_EDGE('',*,*,#348,.F.);
#470=ORIENTED_EDGE('',*,*,#327,.F.);
#471=ORIENTED_EDGE('',*,*,#349,.T.);
#472=ORIENTED_EDGE('',*,*,#350,.T.);
#473=ORIENTED_EDGE('',*,*,#349,.F.);
#474=ORIENTED_EDGE('',*,*,#350,.F.);
#475=ORIENTED_EDGE('',*,*,#351,.F.);
#476=ORIENTED_EDGE('',*,*,#319,.F.);
#477=ORIENTED_EDGE('',*,*,#352,.F.);
#478=ORIENTED_EDGE('',*,*,#352,.T.);
#479=ORIENTED_EDGE('',*,*,#298,.F.);
#480=ORIENTED_EDGE('',*,*,#353,.F.);
#481=ORIENTED_EDGE('',*,*,#323,.F.);
#482=ORIENTED_EDGE('',*,*,#351,.T.);
#483=ORIENTED_EDGE('',*,*,#326,.F.);
#484=ORIENTED_EDGE('',*,*,#354,.F.);
#485=ORIENTED_EDGE('',*,*,#317,.F.);
#486=ORIENTED_EDGE('',*,*,#353,.T.);
#487=ORIENTED_EDGE('',*,*,#302,.F.);
#488=ORIENTED_EDGE('',*,*,#355,.F.);
#489=ORIENTED_EDGE('',*,*,#314,.F.);
#490=ORIENTED_EDGE('',*,*,#354,.T.);
#491=ORIENTED_EDGE('',*,*,#356,.F.);
#492=ORIENTED_EDGE('',*,*,#355,.T.);
#493=ORIENTED_EDGE('',*,*,#305,.F.);
#494=ORIENTED_EDGE('',*,*,#357,.F.);
#495=ORIENTED_EDGE('',*,*,#324,.F.);
#496=ORIENTED_EDGE('',*,*,#356,.T.);
#497=ORIENTED_EDGE('',*,*,#325,.F.);
#498=ORIENTED_EDGE('',*,*,#358,.F.);
#499=ORIENTED_EDGE('',*,*,#311,.F.);
#500=ORIENTED_EDGE('',*,*,#308,.F.);
#501=ORIENTED_EDGE('',*,*,#358,.T.);
#502=ORIENTED_EDGE('',*,*,#357,.T.);
#503=PLANE('',#573);
#504=PLANE('',#574);
#505=PLANE('',#575);
#506=PLANE('',#576);
#507=PLANE('',#580);
#508=PLANE('',#584);
#509=PLANE('',#588);
#510=PLANE('',#592);
#511=PLANE('',#593);
#512=PLANE('',#594);
#513=PLANE('',#605);
#514=PLANE('',#608);
#515=PLANE('',#611);
#516=PLANE('',#614);
#517=PLANE('',#617);
#518=PLANE('',#620);
#519=PLANE('',#623);
#520=PLANE('',#626);
#521=ADVANCED_FACE('',(#77),#503,.T.);
#522=ADVANCED_FACE('',(#78),#504,.F.);
#523=ADVANCED_FACE('',(#79),#505,.F.);
#524=ADVANCED_FACE('',(#80),#506,.T.);
#525=ADVANCED_FACE('',(#81),#61,.T.);
#526=ADVANCED_FACE('',(#82),#507,.T.);
#527=ADVANCED_FACE('',(#83),#62,.T.);
#528=ADVANCED_FACE('',(#84),#508,.F.);
#529=ADVANCED_FACE('',(#85),#63,.T.);
#530=ADVANCED_FACE('',(#86),#509,.F.);
#531=ADVANCED_FACE('',(#87),#64,.T.);
#532=ADVANCED_FACE('',(#88),#510,.T.);
#533=ADVANCED_FACE('',(#89,#27),#511,.T.);
#534=ADVANCED_FACE('',(#90,#28,#29,#30,#31,#32,#33,#34,#35,#36),#512,.F.);
#535=ADVANCED_FACE('',(#91),#65,.F.);
#536=ADVANCED_FACE('',(#92),#513,.F.);
#537=ADVANCED_FACE('',(#93),#66,.F.);
#538=ADVANCED_FACE('',(#94),#514,.F.);
#539=ADVANCED_FACE('',(#95),#67,.F.);
#540=ADVANCED_FACE('',(#96),#515,.F.);
#541=ADVANCED_FACE('',(#97),#68,.F.);
#542=ADVANCED_FACE('',(#98),#516,.F.);
#543=ADVANCED_FACE('',(#99),#69,.F.);
#544=ADVANCED_FACE('',(#100),#517,.F.);
#545=ADVANCED_FACE('',(#101),#70,.F.);
#546=ADVANCED_FACE('',(#102),#518,.F.);
#547=ADVANCED_FACE('',(#103),#71,.F.);
#548=ADVANCED_FACE('',(#104),#519,.F.);
#549=ADVANCED_FACE('',(#105),#72,.F.);
#550=ADVANCED_FACE('',(#106),#520,.F.);
#551=ADVANCED_FACE('',(#107),#23,.T.);
#552=ADVANCED_FACE('',(#108),#73,.T.);
#553=ADVANCED_FACE('',(#109),#74,.T.);
#554=ADVANCED_FACE('',(#110),#24,.T.);
#555=ADVANCED_FACE('',(#111),#25,.T.);
#556=ADVANCED_FACE('',(#112),#75,.T.);
#557=ADVANCED_FACE('',(#113),#76,.T.);
#558=ADVANCED_FACE('',(#114),#26,.T.);
#559=CLOSED_SHELL('',(#521,#522,#523,#524,#525,#526,#527,#528,#529,#530,
#531,#532,#533,#534,#535,#536,#537,#538,#539,#540,#541,#542,#543,#544,#545,
#546,#547,#548,#549,#550,#551,#552,#553,#554,#555,#556,#557,#558));
#560=DERIVED_UNIT_ELEMENT(#562,1.);
#561=DERIVED_UNIT_ELEMENT(#1076,-3.);
#562=(
MASS_UNIT()
NAMED_UNIT(*)
SI_UNIT(.KILO.,.GRAM.)
);
#563=DERIVED_UNIT((#560,#561));
#564=MEASURE_REPRESENTATION_ITEM('density measure',
POSITIVE_RATIO_MEASURE(7850.),#563);
#565=PROPERTY_DEFINITION_REPRESENTATION(#570,#567);
#566=PROPERTY_DEFINITION_REPRESENTATION(#571,#568);
#567=REPRESENTATION('material name',(#569),#1074);
#568=REPRESENTATION('density',(#564),#1074);
#569=DESCRIPTIVE_REPRESENTATION_ITEM('Steel','Steel');
#570=PROPERTY_DEFINITION('material property','material name',#1083);
#571=PROPERTY_DEFINITION('material property','density of part',#1083);
#572=AXIS2_PLACEMENT_3D('',#813,#639,#640);
#573=AXIS2_PLACEMENT_3D('',#814,#641,#642);
#574=AXIS2_PLACEMENT_3D('',#823,#647,#648);
#575=AXIS2_PLACEMENT_3D('',#829,#652,#653);
#576=AXIS2_PLACEMENT_3D('',#835,#657,#658);
#577=AXIS2_PLACEMENT_3D('',#844,#663,#664);
#578=AXIS2_PLACEMENT_3D('',#848,#666,#667);
#579=AXIS2_PLACEMENT_3D('',#849,#668,#669);
#580=AXIS2_PLACEMENT_3D('',#850,#670,#671);
#581=AXIS2_PLACEMENT_3D('',#856,#675,#676);
#582=AXIS2_PLACEMENT_3D('',#860,#678,#679);
#583=AXIS2_PLACEMENT_3D('',#861,#680,#681);
#584=AXIS2_PLACEMENT_3D('',#862,#682,#683);
#585=AXIS2_PLACEMENT_3D('',#868,#687,#688);
#586=AXIS2_PLACEMENT_3D('',#872,#690,#691);
#587=AXIS2_PLACEMENT_3D('',#873,#692,#693);
#588=AXIS2_PLACEMENT_3D('',#874,#694,#695);
#589=AXIS2_PLACEMENT_3D('',#880,#699,#700);
#590=AXIS2_PLACEMENT_3D('',#881,#701,#702);
#591=AXIS2_PLACEMENT_3D('',#882,#703,#704);
#592=AXIS2_PLACEMENT_3D('',#883,#705,#706);
#593=AXIS2_PLACEMENT_3D('',#886,#709,#710);
#594=AXIS2_PLACEMENT_3D('',#895,#715,#716);
#595=AXIS2_PLACEMENT_3D('',#897,#717,#718);
#596=AXIS2_PLACEMENT_3D('',#899,#719,#720);
#597=AXIS2_PLACEMENT_3D('',#901,#721,#722);
#598=AXIS2_PLACEMENT_3D('',#903,#723,#724);
#599=AXIS2_PLACEMENT_3D('',#905,#725,#726);
#600=AXIS2_PLACEMENT_3D('',#907,#727,#728);
#601=AXIS2_PLACEMENT_3D('',#909,#729,#730);
#602=AXIS2_PLACEMENT_3D('',#911,#731,#732);
#603=AXIS2_PLACEMENT_3D('',#912,#733,#734);
#604=AXIS2_PLACEMENT_3D('',#915,#736,#737);
#605=AXIS2_PLACEMENT_3D('',#916,#738,#739);
#606=AXIS2_PLACEMENT_3D('',#917,#740,#741);
#607=AXIS2_PLACEMENT_3D('',#920,#743,#744);
#608=AXIS2_PLACEMENT_3D('',#921,#745,#746);
#609=AXIS2_PLACEMENT_3D('',#922,#747,#748);
#610=AXIS2_PLACEMENT_3D('',#925,#750,#751);
#611=AXIS2_PLACEMENT_3D('',#926,#752,#753);
#612=AXIS2_PLACEMENT_3D('',#927,#754,#755);
#613=AXIS2_PLACEMENT_3D('',#930,#757,#758);
#614=AXIS2_PLACEMENT_3D('',#931,#759,#760);
#615=AXIS2_PLACEMENT_3D('',#932,#761,#762);
#616=AXIS2_PLACEMENT_3D('',#935,#764,#765);
#617=AXIS2_PLACEMENT_3D('',#936,#766,#767);
#618=AXIS2_PLACEMENT_3D('',#937,#768,#769);
#619=AXIS2_PLACEMENT_3D('',#940,#771,#772);
#620=AXIS2_PLACEMENT_3D('',#941,#773,#774);
#621=AXIS2_PLACEMENT_3D('',#942,#775,#776);
#622=AXIS2_PLACEMENT_3D('',#945,#778,#779);
#623=AXIS2_PLACEMENT_3D('',#946,#780,#781);
#624=AXIS2_PLACEMENT_3D('',#947,#782,#783);
#625=AXIS2_PLACEMENT_3D('',#950,#785,#786);
#626=AXIS2_PLACEMENT_3D('',#951,#787,#788);
#627=AXIS2_PLACEMENT_3D('',#979,#789,#790);
#628=AXIS2_PLACEMENT_3D('',#980,#791,#792);
#629=AXIS2_PLACEMENT_3D('',#981,#793,#794);
#630=AXIS2_PLACEMENT_3D('',#982,#795,#796);
#631=AXIS2_PLACEMENT_3D('',#983,#797,#798);
#632=AXIS2_PLACEMENT_3D('',#984,#799,#800);
#633=AXIS2_PLACEMENT_3D('',#1012,#801,#802);
#634=AXIS2_PLACEMENT_3D('',#1040,#803,#804);
#635=AXIS2_PLACEMENT_3D('',#1041,#805,#806);
#636=AXIS2_PLACEMENT_3D('',#1042,#807,#808);
#637=AXIS2_PLACEMENT_3D('',#1043,#809,#810);
#638=AXIS2_PLACEMENT_3D('',#1044,#811,#812);
#639=DIRECTION('axis',(0.,0.,1.));
#640=DIRECTION('refdir',(1.,0.,0.));
#641=DIRECTION('center_axis',(0.,1.,0.));
#642=DIRECTION('ref_axis',(0.,0.,1.));
#643=DIRECTION('',(1.,0.,0.));
#644=DIRECTION('',(0.,0.,-1.));
#645=DIRECTION('',(1.,0.,0.));
#646=DIRECTION('',(0.,0.,-1.));
#647=DIRECTION('center_axis',(-1.,0.,0.));
#648=DIRECTION('ref_axis',(0.,0.,1.));
#649=DIRECTION('',(0.,1.,0.));
#650=DIRECTION('',(0.,0.,-1.));
#651=DIRECTION('',(0.,1.,0.));
#652=DIRECTION('center_axis',(0.,1.,0.));
#653=DIRECTION('ref_axis',(0.,0.,1.));
#654=DIRECTION('',(1.,0.,0.));
#655=DIRECTION('',(0.,0.,-1.));
#656=DIRECTION('',(1.,0.,0.));
#657=DIRECTION('center_axis',(1.,0.,0.));
#658=DIRECTION('ref_axis',(0.,0.,-1.));
#659=DIRECTION('',(0.,0.,-1.));
#660=DIRECTION('',(0.,-1.,0.));
#661=DIRECTION('',(0.,0.,-1.));
#662=DIRECTION('',(0.,-1.,0.));
#663=DIRECTION('center_axis',(0.,0.,-1.));
#664=DIRECTION('ref_axis',(-1.,0.,0.));
#665=DIRECTION('',(0.,0.,-1.));
#666=DIRECTION('center_axis',(0.,0.,-1.));
#667=DIRECTION('ref_axis',(-1.,0.,0.));
#668=DIRECTION('center_axis',(0.,0.,1.));
#669=DIRECTION('ref_axis',(1.,0.,0.));
#670=DIRECTION('center_axis',(0.,1.,0.));
#671=DIRECTION('ref_axis',(0.,0.,1.));
#672=DIRECTION('',(0.,0.,-1.));
#673=DIRECTION('',(1.,0.,0.));
#674=DIRECTION('',(1.,0.,0.));
#675=DIRECTION('center_axis',(0.,0.,-1.));
#676=DIRECTION('ref_axis',(-1.,0.,0.));
#677=DIRECTION('',(0.,0.,-1.));
#678=DIRECTION('center_axis',(0.,0.,-1.));
#679=DIRECTION('ref_axis',(-1.,0.,0.));
#680=DIRECTION('center_axis',(0.,0.,1.));
#681=DIRECTION('ref_axis',(1.,0.,0.));
#682=DIRECTION('center_axis',(1.,0.,0.));
#683=DIRECTION('ref_axis',(0.,0.,-1.));
#684=DIRECTION('',(0.,0.,-1.));
#685=DIRECTION('',(0.,-1.,0.));
#686=DIRECTION('',(0.,-1.,0.));
#687=DIRECTION('center_axis',(0.,0.,-1.));
#688=DIRECTION('ref_axis',(-1.,0.,0.));
#689=DIRECTION('',(0.,0.,-1.));
#690=DIRECTION('center_axis',(0.,0.,-1.));
#691=DIRECTION('ref_axis',(-1.,0.,0.));
#692=DIRECTION('center_axis',(0.,0.,1.));
#693=DIRECTION('ref_axis',(1.,0.,0.));
#694=DIRECTION('center_axis',(0.,1.,0.));
#695=DIRECTION('ref_axis',(0.,0.,1.));
#696=DIRECTION('',(0.,0.,-1.));
#697=DIRECTION('',(1.,0.,0.));
#698=DIRECTION('',(1.,0.,0.));
#699=DIRECTION('center_axis',(0.,0.,-1.));
#700=DIRECTION('ref_axis',(-1.,0.,0.));
#701=DIRECTION('center_axis',(0.,0.,-1.));
#702=DIRECTION('ref_axis',(-1.,0.,0.));
#703=DIRECTION('center_axis',(0.,0.,1.));
#704=DIRECTION('ref_axis',(1.,0.,0.));
#705=DIRECTION('center_axis',(-1.,0.,0.));
#706=DIRECTION('ref_axis',(0.,0.,1.));
#707=DIRECTION('',(0.,1.,0.));
#708=DIRECTION('',(0.,1.,0.));
#709=DIRECTION('center_axis',(0.,0.,1.));
#710=DIRECTION('ref_axis',(1.,0.,0.));
#711=DIRECTION('',(0.,-1.,0.));
#712=DIRECTION('',(1.,0.,0.));
#713=DIRECTION('',(0.,-1.,0.));
#714=DIRECTION('',(1.,0.,0.));
#715=DIRECTION('center_axis',(0.,0.,1.));
#716=DIRECTION('ref_axis',(1.,0.,0.));
#717=DIRECTION('center_axis',(0.,0.,1.));
#718=DIRECTION('ref_axis',(1.,0.,0.));
#719=DIRECTION('center_axis',(0.,0.,1.));
#720=DIRECTION('ref_axis',(1.,0.,0.));
#721=DIRECTION('center_axis',(0.,0.,1.));
#722=DIRECTION('ref_axis',(1.,0.,0.));
#723=DIRECTION('center_axis',(0.,0.,1.));
#724=DIRECTION('ref_axis',(1.,0.,0.));
#725=DIRECTION('center_axis',(0.,0.,1.));
#726=DIRECTION('ref_axis',(1.,0.,0.));
#727=DIRECTION('center_axis',(0.,0.,1.));
#728=DIRECTION('ref_axis',(1.,0.,0.));
#729=DIRECTION('center_axis',(0.,0.,1.));
#730=DIRECTION('ref_axis',(1.,0.,0.));
#731=DIRECTION('center_axis',(0.,0.,1.));
#732=DIRECTION('ref_axis',(1.,0.,0.));
#733=DIRECTION('center_axis',(0.,0.,1.));
#734=DIRECTION('ref_axis',(1.,0.,0.));
#735=DIRECTION('',(0.,0.,1.));
#736=DIRECTION('center_axis',(0.,0.,1.));
#737=DIRECTION('ref_axis',(1.,0.,0.));
#738=DIRECTION('center_axis',(0.,0.,1.));
#739=DIRECTION('ref_axis',(1.,0.,0.));
#740=DIRECTION('center_axis',(0.,0.,1.));
#741=DIRECTION('ref_axis',(1.,0.,0.));
#742=DIRECTION('',(0.,0.,1.));
#743=DIRECTION('center_axis',(0.,0.,1.));
#744=DIRECTION('ref_axis',(1.,0.,0.));
#745=DIRECTION('center_axis',(0.,0.,1.));
#746=DIRECTION('ref_axis',(1.,0.,0.));
#747=DIRECTION('center_axis',(0.,0.,1.));
#748=DIRECTION('ref_axis',(1.,0.,0.));
#749=DIRECTION('',(0.,0.,1.));
#750=DIRECTION('center_axis',(0.,0.,1.));
#751=DIRECTION('ref_axis',(1.,0.,0.));
#752=DIRECTION('center_axis',(0.,0.,1.));
#753=DIRECTION('ref_axis',(1.,0.,0.));
#754=DIRECTION('center_axis',(0.,0.,1.));
#755=DIRECTION('ref_axis',(1.,0.,0.));
#756=DIRECTION('',(0.,0.,1.));
#757=DIRECTION('center_axis',(0.,0.,1.));
#758=DIRECTION('ref_axis',(1.,0.,0.));
#759=DIRECTION('center_axis',(0.,0.,1.));
#760=DIRECTION('ref_axis',(1.,0.,0.));
#761=DIRECTION('center_axis',(0.,0.,1.));
#762=DIRECTION('ref_axis',(1.,0.,0.));
#763=DIRECTION('',(0.,0.,1.));
#764=DIRECTION('center_axis',(0.,0.,1.));
#765=DIRECTION('ref_axis',(1.,0.,0.));
#766=DIRECTION('center_axis',(0.,0.,1.));
#767=DIRECTION('ref_axis',(1.,0.,0.));
#768=DIRECTION('center_axis',(0.,0.,1.));
#769=DIRECTION('ref_axis',(1.,0.,0.));
#770=DIRECTION('',(0.,0.,1.));
#771=DIRECTION('center_axis',(0.,0.,1.));
#772=DIRECTION('ref_axis',(1.,0.,0.));
#773=DIRECTION('center_axis',(0.,0.,1.));
#774=DIRECTION('ref_axis',(1.,0.,0.));
#775=DIRECTION('center_axis',(0.,0.,1.));
#776=DIRECTION('ref_axis',(1.,0.,0.));
#777=DIRECTION('',(0.,0.,1.));
#778=DIRECTION('center_axis',(0.,0.,1.));
#779=DIRECTION('ref_axis',(1.,0.,0.));
#780=DIRECTION('center_axis',(0.,0.,1.));
#781=DIRECTION('ref_axis',(1.,0.,0.));
#782=DIRECTION('center_axis',(0.,0.,1.));
#783=DIRECTION('ref_axis',(1.,0.,0.));
#784=DIRECTION('',(0.,0.,1.));
#785=DIRECTION('center_axis',(0.,0.,1.));
#786=DIRECTION('ref_axis',(1.,0.,0.));
#787=DIRECTION('center_axis',(0.,0.,1.));
#788=DIRECTION('ref_axis',(1.,0.,0.));
#789=DIRECTION('center_axis',(0.938343116817112,0.345705358827352,0.));
#790=DIRECTION('ref_axis',(0.345705358827352,-0.938343116817112,0.));
#791=DIRECTION('center_axis',(0.345705358827351,0.938343116817112,0.));
#792=DIRECTION('ref_axis',(0.938343116817112,-0.345705358827351,0.));
#793=DIRECTION('center_axis',(0.,-1.,0.));
#794=DIRECTION('ref_axis',(0.,0.,-1.));
#795=DIRECTION('center_axis',(-0.345705358827352,0.938343116817112,0.));
#796=DIRECTION('ref_axis',(0.938343116817112,0.345705358827352,0.));
#797=DIRECTION('center_axis',(-1.,0.,0.));
#798=DIRECTION('ref_axis',(0.,0.,1.));
#799=DIRECTION('center_axis',(0.938343116817114,-0.345705358827347,0.));
#800=DIRECTION('ref_axis',(-0.345705358827347,-0.938343116817113,0.));
#801=DIRECTION('center_axis',(-0.938343116817112,0.345705358827352,0.));
#802=DIRECTION('ref_axis',(0.345705358827352,0.938343116817112,0.));
#803=DIRECTION('center_axis',(0.345705358827347,-0.938343116817114,0.));
#804=DIRECTION('ref_axis',(-0.938343116817114,-0.345705358827347,0.));
#805=DIRECTION('center_axis',(1.,0.,0.));
#806=DIRECTION('ref_axis',(0.,0.,-1.));
#807=DIRECTION('center_axis',(-0.938343116817114,-0.345705358827347,0.));
#808=DIRECTION('ref_axis',(-0.345705358827347,0.938343116817113,0.));
#809=DIRECTION('center_axis',(0.,1.,0.));
#810=DIRECTION('ref_axis',(0.,0.,1.));
#811=DIRECTION('center_axis',(-0.345705358827347,-0.938343116817114,0.));
#812=DIRECTION('ref_axis',(-0.938343116817114,0.345705358827347,0.));
#813=CARTESIAN_POINT('',(0.,0.,0.));
#814=CARTESIAN_POINT('Origin',(0.00419646501541138,-0.0575094558298588,
0.0172));
#815=CARTESIAN_POINT('',(-0.158300831913948,-0.0575094558298588,0.0109));
#816=CARTESIAN_POINT('',(0.166693761944771,-0.0575094558298588,0.0109));
#817=CARTESIAN_POINT('',(0.00419646501541138,-0.0575094558298588,0.0109));
#818=CARTESIAN_POINT('',(-0.158300831913948,-0.0575094558298588,0.0172));
#819=CARTESIAN_POINT('',(-0.158300831913948,-0.0575094558298588,0.0172));
#820=CARTESIAN_POINT('',(0.166693761944771,-0.0575094558298588,0.0172));
#821=CARTESIAN_POINT('',(0.00419646501541138,-0.0575094558298588,0.0172));
#822=CARTESIAN_POINT('',(0.166693761944771,-0.0575094558298588,0.0172));
#823=CARTESIAN_POINT('Origin',(-0.158300831913948,0.000328803434967995,
0.0172));
#824=CARTESIAN_POINT('',(-0.158300831913948,0.0581670626997948,0.0109));
#825=CARTESIAN_POINT('',(-0.158300831913948,0.000328803434967995,0.0109));
#826=CARTESIAN_POINT('',(-0.158300831913948,0.0581670626997948,0.0172));
#827=CARTESIAN_POINT('',(-0.158300831913948,0.0581670626997948,0.0172));
#828=CARTESIAN_POINT('',(-0.158300831913948,0.000328803434967995,0.0172));
#829=CARTESIAN_POINT('Origin',(0.00419646501541138,0.0581670626997948,0.0172));
#830=CARTESIAN_POINT('',(0.166693761944771,0.0581670626997948,0.0109));
#831=CARTESIAN_POINT('',(0.00419646501541138,0.0581670626997948,0.0109));
#832=CARTESIAN_POINT('',(0.166693761944771,0.0581670626997948,0.0172));
#833=CARTESIAN_POINT('',(0.166693761944771,0.0581670626997948,0.0172));
#834=CARTESIAN_POINT('',(0.00419646501541138,0.0581670626997948,0.0172));
#835=CARTESIAN_POINT('Origin',(0.171497620886922,0.00183428458362703,0.0172));
#836=CARTESIAN_POINT('',(0.171497620886922,0.067094284583627,0.01245));
#837=CARTESIAN_POINT('',(0.171497620886922,0.067094284583627,0.0109));
#838=CARTESIAN_POINT('',(0.171497620886922,0.067094284583627,0.0172));
#839=CARTESIAN_POINT('',(0.171497620886922,-0.0634257154163729,0.01245));
#840=CARTESIAN_POINT('',(0.171497620886922,0.00183428458362703,0.01245));
#841=CARTESIAN_POINT('',(0.171497620886922,-0.0634257154163729,0.0109));
#842=CARTESIAN_POINT('',(0.171497620886922,-0.0634257154163729,0.0172));
#843=CARTESIAN_POINT('',(0.171497620886922,0.00183428458362703,0.0109));
#844=CARTESIAN_POINT('Origin',(0.168497620886922,0.067094284583627,0.0172));
#845=CARTESIAN_POINT('',(0.168497620886922,0.070094284583627,0.01245));
#846=CARTESIAN_POINT('',(0.168497620886922,0.070094284583627,0.0109));
#847=CARTESIAN_POINT('',(0.168497620886922,0.070094284583627,0.0172));
#848=CARTESIAN_POINT('Origin',(0.168497620886922,0.067094284583627,0.01245));
#849=CARTESIAN_POINT('Origin',(0.168497620886922,0.067094284583627,0.0109));
#850=CARTESIAN_POINT('Origin',(0.00395034815964976,0.070094284583627,0.0172));
#851=CARTESIAN_POINT('',(-0.160596924567623,0.070094284583627,0.01245));
#852=CARTESIAN_POINT('',(-0.160596924567623,0.070094284583627,0.0109));
#853=CARTESIAN_POINT('',(-0.160596924567623,0.070094284583627,0.0172));
#854=CARTESIAN_POINT('',(0.00395034815964976,0.070094284583627,0.01245));
#855=CARTESIAN_POINT('',(0.00395034815964976,0.070094284583627,0.0109));
#856=CARTESIAN_POINT('Origin',(-0.160596924567623,0.067094284583627,0.0172));
#857=CARTESIAN_POINT('',(-0.163596924567623,0.067094284583627,0.01245));
#858=CARTESIAN_POINT('',(-0.163596924567623,0.067094284583627,0.0109));
#859=CARTESIAN_POINT('',(-0.163596924567623,0.067094284583627,0.0172));
#860=CARTESIAN_POINT('Origin',(-0.160596924567623,0.067094284583627,0.01245));
#861=CARTESIAN_POINT('Origin',(-0.160596924567623,0.067094284583627,0.0109));
#862=CARTESIAN_POINT('Origin',(-0.163596924567623,0.00183428458362703,0.0172));
#863=CARTESIAN_POINT('',(-0.163596924567623,-0.0634257154163729,0.01245));
#864=CARTESIAN_POINT('',(-0.163596924567623,-0.0634257154163729,0.0109));
#865=CARTESIAN_POINT('',(-0.163596924567623,-0.0634257154163729,0.0172));
#866=CARTESIAN_POINT('',(-0.163596924567623,0.067094284583627,0.01245));
#867=CARTESIAN_POINT('',(-0.163596924567623,0.00183428458362703,0.0109));
#868=CARTESIAN_POINT('Origin',(-0.160596924567623,-0.0634257154163729,0.0172));
#869=CARTESIAN_POINT('',(-0.160596924567623,-0.066425715416373,0.01245));
#870=CARTESIAN_POINT('',(-0.160596924567623,-0.066425715416373,0.0109));
#871=CARTESIAN_POINT('',(-0.160596924567623,-0.066425715416373,0.0172));
#872=CARTESIAN_POINT('Origin',(-0.160596924567623,-0.0634257154163729,0.01245));
#873=CARTESIAN_POINT('Origin',(-0.160596924567623,-0.0634257154163729,0.0109));
#874=CARTESIAN_POINT('Origin',(0.00395034815964976,-0.066425715416373,0.0172));
#875=CARTESIAN_POINT('',(0.168497620886922,-0.066425715416373,0.01245));
#876=CARTESIAN_POINT('',(0.168497620886922,-0.066425715416373,0.0109));
#877=CARTESIAN_POINT('',(0.168497620886922,-0.066425715416373,0.0172));
#878=CARTESIAN_POINT('',(-0.160596924567623,-0.066425715416373,0.01245));
#879=CARTESIAN_POINT('',(0.00395034815964976,-0.066425715416373,0.0109));
#880=CARTESIAN_POINT('Origin',(0.168497620886922,-0.0634257154163729,0.0172));
#881=CARTESIAN_POINT('Origin',(0.168497620886922,-0.0634257154163729,0.01245));
#882=CARTESIAN_POINT('Origin',(0.168497620886922,-0.0634257154163729,0.0109));
#883=CARTESIAN_POINT('Origin',(0.166693761944771,0.000328803434967995,0.0172));
#884=CARTESIAN_POINT('',(0.166693761944771,0.000328803434967995,0.0109));
#885=CARTESIAN_POINT('',(0.166693761944771,0.000328803434967995,0.0172));
#886=CARTESIAN_POINT('Origin',(0.00395034815964976,0.00183428458362703,
0.0172));
#887=CARTESIAN_POINT('',(0.166747620886922,-0.061675715416373,0.0172));
#888=CARTESIAN_POINT('',(0.166747620886922,0.065344284583627,0.0172));
#889=CARTESIAN_POINT('',(0.166747620886922,0.00183428458362703,0.0172));
#890=CARTESIAN_POINT('',(-0.158846924567623,0.065344284583627,0.0172));
#891=CARTESIAN_POINT('',(0.00395034815964976,0.065344284583627,0.0172));
#892=CARTESIAN_POINT('',(-0.158846924567623,-0.061675715416373,0.0172));
#893=CARTESIAN_POINT('',(-0.158846924567623,-0.0634257154163729,0.0172));
#894=CARTESIAN_POINT('',(0.168497620886922,-0.061675715416373,0.0172));
#895=CARTESIAN_POINT('Origin',(0.00395034815964976,0.00183428458362703,
0.0109));
#896=CARTESIAN_POINT('',(0.166836860175133,0.0637573126363754,0.0109));
#897=CARTESIAN_POINT('Origin',(0.168261860175133,0.0637573126363754,0.0109));
#898=CARTESIAN_POINT('',(-0.161920162010193,0.0640240656370347,0.0109));
#899=CARTESIAN_POINT('Origin',(-0.160495162010193,0.0640240656370347,0.0109));
#900=CARTESIAN_POINT('',(-0.00445952368825674,-0.0625294968485832,0.0109));
#901=CARTESIAN_POINT('Origin',(-0.00303452368825674,-0.0625294968485832,
0.0109));
#902=CARTESIAN_POINT('',(0.0094481687068939,-0.0625606924295425,0.0109));
#903=CARTESIAN_POINT('Origin',(0.0108731687068939,-0.0625606924295425,0.0109));
#904=CARTESIAN_POINT('',(-0.00454255854636431,0.0662339553236961,0.0109));
#905=CARTESIAN_POINT('Origin',(-0.00311755854636431,0.0662339553236961,
0.0109));
#906=CARTESIAN_POINT('',(0.0095231159597635,0.0661718770861626,0.0109));
#907=CARTESIAN_POINT('Origin',(0.0109481159597635,0.0661718770861626,0.0109));
#908=CARTESIAN_POINT('',(0.167010499072075,-0.0603541471064091,0.0109));
#909=CARTESIAN_POINT('Origin',(0.168435499072075,-0.0603541471064091,0.0109));
#910=CARTESIAN_POINT('',(-0.16189766125679,-0.0603679679334164,0.0109));
#911=CARTESIAN_POINT('Origin',(-0.16047266125679,-0.0603679679334164,0.0109));
#912=CARTESIAN_POINT('Origin',(-0.16047266125679,-0.0603679679334164,0.0109));
#913=CARTESIAN_POINT('',(-0.16189766125679,-0.0603679679334164,0.0139));
#914=CARTESIAN_POINT('',(-0.16189766125679,-0.0603679679334164,0.0109));
#915=CARTESIAN_POINT('Origin',(-0.16047266125679,-0.0603679679334164,0.0139));
#916=CARTESIAN_POINT('Origin',(0.00395034815964976,0.00183428458362703,
0.0139));
#917=CARTESIAN_POINT('Origin',(0.168435499072075,-0.0603541471064091,0.0109));
#918=CARTESIAN_POINT('',(0.167010499072075,-0.0603541471064091,0.0139));
#919=CARTESIAN_POINT('',(0.167010499072075,-0.0603541471064091,0.0109));
#920=CARTESIAN_POINT('Origin',(0.168435499072075,-0.0603541471064091,0.0139));
#921=CARTESIAN_POINT('Origin',(0.00395034815964976,0.00183428458362703,
0.0139));
#922=CARTESIAN_POINT('Origin',(0.0109481159597635,0.0661718770861626,0.0109));
#923=CARTESIAN_POINT('',(0.0095231159597635,0.0661718770861626,0.0139));
#924=CARTESIAN_POINT('',(0.0095231159597635,0.0661718770861626,0.0109));
#925=CARTESIAN_POINT('Origin',(0.0109481159597635,0.0661718770861626,0.0139));
#926=CARTESIAN_POINT('Origin',(0.00395034815964976,0.00183428458362703,
0.0139));
#927=CARTESIAN_POINT('Origin',(-0.00311755854636431,0.0662339553236961,
0.0109));
#928=CARTESIAN_POINT('',(-0.00454255854636431,0.0662339553236961,0.0139));
#929=CARTESIAN_POINT('',(-0.00454255854636431,0.0662339553236961,0.0109));
#930=CARTESIAN_POINT('Origin',(-0.00311755854636431,0.0662339553236961,
0.0139));
#931=CARTESIAN_POINT('Origin',(0.00395034815964976,0.00183428458362703,
0.0139));
#932=CARTESIAN_POINT('Origin',(0.0108731687068939,-0.0625606924295425,0.0109));
#933=CARTESIAN_POINT('',(0.0094481687068939,-0.0625606924295425,0.0139));
#934=CARTESIAN_POINT('',(0.0094481687068939,-0.0625606924295425,0.0109));
#935=CARTESIAN_POINT('Origin',(0.0108731687068939,-0.0625606924295425,0.0139));
#936=CARTESIAN_POINT('Origin',(0.00395034815964976,0.00183428458362703,
0.0139));
#937=CARTESIAN_POINT('Origin',(-0.00303452368825674,-0.0625294968485832,
0.0109));
#938=CARTESIAN_POINT('',(-0.00445952368825674,-0.0625294968485832,0.0139));
#939=CARTESIAN_POINT('',(-0.00445952368825674,-0.0625294968485832,0.0109));
#940=CARTESIAN_POINT('Origin',(-0.00303452368825674,-0.0625294968485832,
0.0139));
#941=CARTESIAN_POINT('Origin',(0.00395034815964976,0.00183428458362703,
0.0139));
#942=CARTESIAN_POINT('Origin',(-0.160495162010193,0.0640240656370347,0.0109));
#943=CARTESIAN_POINT('',(-0.161920162010193,0.0640240656370347,0.0139));
#944=CARTESIAN_POINT('',(-0.161920162010193,0.0640240656370347,0.0109));
#945=CARTESIAN_POINT('Origin',(-0.160495162010193,0.0640240656370347,0.0139));
#946=CARTESIAN_POINT('Origin',(0.00395034815964976,0.00183428458362703,
0.0139));
#947=CARTESIAN_POINT('Origin',(0.168261860175133,0.0637573126363754,0.0109));
#948=CARTESIAN_POINT('',(0.166836860175133,0.0637573126363754,0.0139));
#949=CARTESIAN_POINT('',(0.166836860175133,0.0637573126363754,0.0109));
#950=CARTESIAN_POINT('Origin',(0.168261860175133,0.0637573126363754,0.0139));
#951=CARTESIAN_POINT('Origin',(0.00395034815964976,0.00183428458362703,
0.0139));
#952=CARTESIAN_POINT('Ctrl Pts',(0.17149762057942,-0.0634247012524822,0.0124488647754632));
#953=CARTESIAN_POINT('Ctrl Pts',(0.171498635091044,-0.0664264042034969,
0.0124481469865461));
#954=CARTESIAN_POINT('Ctrl Pts',(0.168496932047644,-0.0664257152011844,
0.0124488646976734));
#955=CARTESIAN_POINT('Ctrl Pts',(0.171497695196487,-0.063424728722482,0.0127600636096981));
#956=CARTESIAN_POINT('Ctrl Pts',(0.171498807290013,-0.0664265763921279,
0.0129561217531286));
#957=CARTESIAN_POINT('Ctrl Pts',(0.168496959528113,-0.066425789828825,0.0127600848569903));
#958=CARTESIAN_POINT('Ctrl Pts',(0.171436516380824,-0.0634022059609239,
0.0133820895610748));
#959=CARTESIAN_POINT('Ctrl Pts',(0.171359441623143,-0.0662872190861704,
0.0139509023731338));
#960=CARTESIAN_POINT('Ctrl Pts',(0.168474428215379,-0.066364602430272,0.0133821520151559));
#961=CARTESIAN_POINT('Ctrl Pts',(0.171164470585161,-0.0633020481150348,
0.0142791560900233));
#962=CARTESIAN_POINT('Ctrl Pts',(0.170820530063386,-0.0657483410487875,
0.015164892811384));
#963=CARTESIAN_POINT('Ctrl Pts',(0.168374236524386,-0.0660925253202809,
0.0142792585285986));
#964=CARTESIAN_POINT('Ctrl Pts',(0.170722755655023,-0.0631394136191888,
0.0151055810028977));
#965=CARTESIAN_POINT('Ctrl Pts',(0.170130232518789,-0.0650580887627756,
0.0160048757244605));
#966=CARTESIAN_POINT('Ctrl Pts',(0.168211556743262,-0.0656507767823764,
0.0151056923856348));
#967=CARTESIAN_POINT('Ctrl Pts',(0.169930344234731,-0.0628476432867887,
0.0160718415894805));
#968=CARTESIAN_POINT('Ctrl Pts',(0.169193279984388,-0.0641212005905488,
0.0167028771724633));
#969=CARTESIAN_POINT('Ctrl Pts',(0.167919721796448,-0.0648583386137761,
0.0160719273228663));
#970=CARTESIAN_POINT('Ctrl Pts',(0.168613008000017,-0.0623625783730949,
0.0169526657650915));
#971=CARTESIAN_POINT('Ctrl Pts',(0.168057174821532,-0.0629851765546599,
0.0171084388965954));
#972=CARTESIAN_POINT('Ctrl Pts',(0.167434576767671,-0.0635410195695144,
0.0169526890128118));
#973=CARTESIAN_POINT('Ctrl Pts',(0.167369488339826,-0.0619046960201623,
0.0172));
#974=CARTESIAN_POINT('Ctrl Pts',(0.167173059943698,-0.062101124357515,0.0172));
#975=CARTESIAN_POINT('Ctrl Pts',(0.166976631606324,-0.0622975527536428,
0.0172));
#976=CARTESIAN_POINT('Ctrl Pts',(0.166747620886923,-0.061675715416373,0.0172));
#977=CARTESIAN_POINT('Ctrl Pts',(0.166747620886923,-0.061675715416373,0.0172));
#978=CARTESIAN_POINT('Ctrl Pts',(0.166747620886923,-0.061675715416373,0.0172));
#979=CARTESIAN_POINT('Origin',(0.166747620886922,-0.061675715416373,0.01245));
#980=CARTESIAN_POINT('Origin',(0.166747620886922,-0.061675715416373,0.01245));
#981=CARTESIAN_POINT('Origin',(0.166747620886922,0.00183428458362703,0.01245));
#982=CARTESIAN_POINT('Origin',(0.166747620886922,0.065344284583627,0.01245));
#983=CARTESIAN_POINT('Origin',(0.00395034815964976,-0.061675715416373,0.01245));
#984=CARTESIAN_POINT('Origin',(-0.158846924567623,-0.061675715416373,0.01245));
#985=CARTESIAN_POINT('Ctrl Pts',(0.16849683922395,0.070094284400946,0.012449124991302));
#986=CARTESIAN_POINT('Ctrl Pts',(0.171498402639081,0.0700950663358526,0.0124485718297479));
#987=CARTESIAN_POINT('Ctrl Pts',(0.171497620704241,0.067093502920722,0.012449124991302));
#988=CARTESIAN_POINT('Ctrl Pts',(0.168496860396052,0.0700943419011299,0.0127602523082941));
#989=CARTESIAN_POINT('Ctrl Pts',(0.171498535311104,0.0700951990078708,0.0129563937517267));
#990=CARTESIAN_POINT('Ctrl Pts',(0.171497678204425,0.0670935240928229,0.0127602523082985));
#991=CARTESIAN_POINT('Ctrl Pts',(0.168474328492137,0.0700331487194434,0.013382217619682));
#992=CARTESIAN_POINT('Ctrl Pts',(0.171359165811519,0.0699558295082914,0.0139509951623242));
#993=CARTESIAN_POINT('Ctrl Pts',(0.171436485022737,0.0670709921889074,0.0133822176196948));
#994=CARTESIAN_POINT('Ctrl Pts',(0.168374155776991,0.069761105847241,0.0142792292950488));
#995=CARTESIAN_POINT('Ctrl Pts',(0.170820342450507,0.0694170061472696,0.0151648541852221));
#996=CARTESIAN_POINT('Ctrl Pts',(0.171164442150528,0.0669708194737533,0.0142792292950699));
#997=CARTESIAN_POINT('Ctrl Pts',(0.168211488919948,0.0693193668997423,0.0151056605998189));
#998=CARTESIAN_POINT('Ctrl Pts',(0.170130086374964,0.0687267500717181,0.0160048391043475));
#999=CARTESIAN_POINT('Ctrl Pts',(0.170722703203022,0.0668081526167013,0.0151056605998418));
#1000=CARTESIAN_POINT('Ctrl Pts',(0.167919672413477,0.0685269363635865,
0.0160719028569364));
#1001=CARTESIAN_POINT('Ctrl Pts',(0.169193183064825,0.0677898467615633,
0.0167028537470345));
#1002=CARTESIAN_POINT('Ctrl Pts',(0.169930272666863,0.0665163361102164,
0.0160719028569541));
#1003=CARTESIAN_POINT('Ctrl Pts',(0.167434550248573,0.0672096124124311,
0.0169526823786208));
#1004=CARTESIAN_POINT('Ctrl Pts',(0.168057127295232,0.0666537909919718,
0.017108433632422));
#1005=CARTESIAN_POINT('Ctrl Pts',(0.168612948715696,0.0660312139453003,
0.0169526823786256));
#1006=CARTESIAN_POINT('Ctrl Pts',(0.166976623011802,0.0659661305154107,
0.0172));
#1007=CARTESIAN_POINT('Ctrl Pts',(0.16717304488589,0.0657697085825695,0.0172));
#1008=CARTESIAN_POINT('Ctrl Pts',(0.167369466818729,0.0655732867085039,
0.0172));
#1009=CARTESIAN_POINT('Ctrl Pts',(0.166747620886923,0.065344284583627,0.0172));
#1010=CARTESIAN_POINT('Ctrl Pts',(0.166747620886923,0.065344284583627,0.0172));
#1011=CARTESIAN_POINT('Ctrl Pts',(0.166747620886923,0.065344284583627,0.0172));
#1012=CARTESIAN_POINT('Origin',(0.166747620886922,0.065344284583627,0.01245));
#1013=CARTESIAN_POINT('Ctrl Pts',(-0.160596142904651,-0.066425715233692,
0.0124491249913021));
#1014=CARTESIAN_POINT('Ctrl Pts',(-0.163597706319634,-0.0664264971685984,
0.0124485718297481));
#1015=CARTESIAN_POINT('Ctrl Pts',(-0.163596924384942,-0.0634249337536152,
0.0124491249913021));
#1016=CARTESIAN_POINT('Ctrl Pts',(-0.160596164076751,-0.0664257727338759,
0.0127602523082942));
#1017=CARTESIAN_POINT('Ctrl Pts',(-0.163597838991649,-0.066426629840623,
0.0129563937517172));
#1018=CARTESIAN_POINT('Ctrl Pts',(-0.163596981885126,-0.0634249549257193,
0.0127602523083082));
#1019=CARTESIAN_POINT('Ctrl Pts',(-0.160573632172839,-0.0663645795521894,
0.013382217619682));
#1020=CARTESIAN_POINT('Ctrl Pts',(-0.163458469492083,-0.0662872603410381,
0.0139509951622967));
#1021=CARTESIAN_POINT('Ctrl Pts',(-0.163535788703434,-0.0634024230217953,
0.0133822176197231));
#1022=CARTESIAN_POINT('Ctrl Pts',(-0.160473459457691,-0.0660925366799871,
0.0142792292950489));
#1023=CARTESIAN_POINT('Ctrl Pts',(-0.162919646131095,-0.065748436980032,
0.0151648541851814));
#1024=CARTESIAN_POINT('Ctrl Pts',(-0.163263745831211,-0.0633022503066277,
0.0142792292951163));
#1025=CARTESIAN_POINT('Ctrl Pts',(-0.160310792600648,-0.0656507977324882,
0.0151056605998189));
#1026=CARTESIAN_POINT('Ctrl Pts',(-0.162229390055583,-0.0650581809044892,
0.0160048391043088));
#1027=CARTESIAN_POINT('Ctrl Pts',(-0.16282200688369,-0.0631395834495546,
0.0151056605998922));
#1028=CARTESIAN_POINT('Ctrl Pts',(-0.160018976094178,-0.0648583671963331,
0.0160719028569364));
#1029=CARTESIAN_POINT('Ctrl Pts',(-0.161292486745475,-0.0641212775943388,
0.0167028537470104));
#1030=CARTESIAN_POINT('Ctrl Pts',(-0.162029576347518,-0.062847766943041,
0.0160719028569928));
#1031=CARTESIAN_POINT('Ctrl Pts',(-0.159533853929273,-0.0635410432451718,
0.0169526823786209));
#1032=CARTESIAN_POINT('Ctrl Pts',(-0.160156430975915,-0.062985221824733,
0.0171084336324123));
#1033=CARTESIAN_POINT('Ctrl Pts',(-0.160712252396359,-0.0623626447780867,
0.0169526823786362));
#1034=CARTESIAN_POINT('Ctrl Pts',(-0.159075926692503,-0.0622975613481679,
0.0172));
#1035=CARTESIAN_POINT('Ctrl Pts',(-0.159272348566576,-0.0621011394153317,
0.0172));
#1036=CARTESIAN_POINT('Ctrl Pts',(-0.159468770499416,-0.0619047175412668,
0.0172));
#1037=CARTESIAN_POINT('Ctrl Pts',(-0.158846924567623,-0.061675715416373,
0.0172));
#1038=CARTESIAN_POINT('Ctrl Pts',(-0.158846924567623,-0.061675715416373,
0.0172));
#1039=CARTESIAN_POINT('Ctrl Pts',(-0.158846924567623,-0.061675715416373,
0.0172));
#1040=CARTESIAN_POINT('Origin',(-0.158846924567623,-0.061675715416373,0.01245));
#1041=CARTESIAN_POINT('Origin',(0.00395034815964976,0.065344284583627,0.01245));
#1042=CARTESIAN_POINT('Origin',(-0.158846924567623,0.065344284583627,0.01245));
#1043=CARTESIAN_POINT('Origin',(-0.158846924567623,0.00183428458362703,
0.01245));
#1044=CARTESIAN_POINT('Origin',(-0.158846924567623,0.065344284583627,0.01245));
#1045=CARTESIAN_POINT('Ctrl Pts',(-0.163596924384942,0.0670935029207186,
0.0124491249913005));
#1046=CARTESIAN_POINT('Ctrl Pts',(-0.163597706319785,0.0700950663358539,
0.0124485718297454));
#1047=CARTESIAN_POINT('Ctrl Pts',(-0.16059614290465,0.070094284400946,0.0124491249913005));
#1048=CARTESIAN_POINT('Ctrl Pts',(-0.163596981885126,0.0670935240928227,
0.0127602523082973));
#1049=CARTESIAN_POINT('Ctrl Pts',(-0.1635978389918,0.070095199007878,0.0129563937517253));
#1050=CARTESIAN_POINT('Ctrl Pts',(-0.16059616407675,0.07009434190113,0.012760252308293));
#1051=CARTESIAN_POINT('Ctrl Pts',(-0.163535788703438,0.0670709921889027,
0.0133822176196937));
#1052=CARTESIAN_POINT('Ctrl Pts',(-0.163458469492227,0.0699558295082904,
0.0139509951623244));
#1053=CARTESIAN_POINT('Ctrl Pts',(-0.160573632172838,0.0700331487194436,
0.0133822176196812));
#1054=CARTESIAN_POINT('Ctrl Pts',(-0.16326374583123,0.0669708194737507,
0.0142792292950689));
#1055=CARTESIAN_POINT('Ctrl Pts',(-0.16291964613121,0.0694170061472709,
0.0151648541852234));
#1056=CARTESIAN_POINT('Ctrl Pts',(-0.16047345945769,0.0697611058472411,
0.0142792292950484));
#1057=CARTESIAN_POINT('Ctrl Pts',(-0.162822006883724,0.0668081526166987,
0.0151056605998406));
#1058=CARTESIAN_POINT('Ctrl Pts',(-0.162229390055667,0.0687267500717182,
0.0160048391043486));
#1059=CARTESIAN_POINT('Ctrl Pts',(-0.160310792600647,0.0693193668997427,
0.0151056605998184));
#1060=CARTESIAN_POINT('Ctrl Pts',(-0.162029576347565,0.0665163361102146,
0.0160719028569532));
#1061=CARTESIAN_POINT('Ctrl Pts',(-0.161292486745526,0.0677898467615631,
0.0167028537470359));
#1062=CARTESIAN_POINT('Ctrl Pts',(-0.160018976094177,0.0685269363635869,
0.016071902856936));
#1063=CARTESIAN_POINT('Ctrl Pts',(-0.160712252396397,0.0660312139452993,
0.0169526823786254));
#1064=CARTESIAN_POINT('Ctrl Pts',(-0.160156430975938,0.0666537909919716,
0.0171084336324181));
#1065=CARTESIAN_POINT('Ctrl Pts',(-0.159533853929272,0.0672096124124316,
0.0169526823786208));
#1066=CARTESIAN_POINT('Ctrl Pts',(-0.15946877049943,0.0655732867085036,
0.0172));
#1067=CARTESIAN_POINT('Ctrl Pts',(-0.159272348566583,0.0657697085825694,
0.0172));
#1068=CARTESIAN_POINT('Ctrl Pts',(-0.159075926692503,0.0659661305154108,
0.0172));
#1069=CARTESIAN_POINT('Ctrl Pts',(-0.158846924567623,0.065344284583627,
0.0172));
#1070=CARTESIAN_POINT('Ctrl Pts',(-0.158846924567623,0.065344284583627,
0.0172));
#1071=CARTESIAN_POINT('Ctrl Pts',(-0.158846924567623,0.065344284583627,
0.0172));
#1072=UNCERTAINTY_MEASURE_WITH_UNIT(LENGTH_MEASURE(1.E-5),#1076,
'DISTANCE_ACCURACY_VALUE',
'Maximum model space distance between geometric entities at asserted c
onnectivities');
#1073=UNCERTAINTY_MEASURE_WITH_UNIT(LENGTH_MEASURE(1.E-5),#1076,
'DISTANCE_ACCURACY_VALUE',
'Maximum model space distance between geometric entities at asserted c
onnectivities');
#1074=(
GEOMETRIC_REPRESENTATION_CONTEXT(3)
GLOBAL_UNCERTAINTY_ASSIGNED_CONTEXT((#1072))
GLOBAL_UNIT_ASSIGNED_CONTEXT((#1076,#1077,#1078))
REPRESENTATION_CONTEXT('','3D')
);
#1075=(
GEOMETRIC_REPRESENTATION_CONTEXT(3)
GLOBAL_UNCERTAINTY_ASSIGNED_CONTEXT((#1073))
GLOBAL_UNIT_ASSIGNED_CONTEXT((#1076,#1077,#1078))
REPRESENTATION_CONTEXT('','3D')
);
#1076=(
LENGTH_UNIT()
NAMED_UNIT(*)
SI_UNIT($,.METRE.)
);
#1077=(
NAMED_UNIT(*)
PLANE_ANGLE_UNIT()
SI_UNIT($,.RADIAN.)
);
#1078=(
NAMED_UNIT(*)
SI_UNIT($,.STERADIAN.)
SOLID_ANGLE_UNIT()
);
#1079=SHAPE_DEFINITION_REPRESENTATION(#1080,#1081);
#1080=PRODUCT_DEFINITION_SHAPE('',$,#1083);
#1081=SHAPE_REPRESENTATION('',(#572),#1074);
#1082=PRODUCT_DEFINITION_CONTEXT('part definition',#1087,'design');
#1083=PRODUCT_DEFINITION('Top','(Unsaved)',#1084,#1082);
#1084=PRODUCT_DEFINITION_FORMATION('',$,#1089);
#1085=PRODUCT_RELATED_PRODUCT_CATEGORY('(Unsaved)','(Unsaved)',(#1089));
#1086=APPLICATION_PROTOCOL_DEFINITION('international standard',
'automotive_design',2009,#1087);
#1087=APPLICATION_CONTEXT(
'Core Data for Automotive Mechanical Design Process');
#1088=PRODUCT_CONTEXT('part definition',#1087,'mechanical');
#1089=PRODUCT('Top','(Unsaved)','STEP AP242 Edition 2',(#1088));
#1090=PRESENTATION_STYLE_ASSIGNMENT((#1092));
#1091=PRESENTATION_STYLE_ASSIGNMENT((#1093));
#1092=SURFACE_STYLE_USAGE(.BOTH.,#1094);
#1093=SURFACE_STYLE_USAGE(.BOTH.,#1095);
#1094=SURFACE_SIDE_STYLE('',(#1096));
#1095=SURFACE_SIDE_STYLE('',(#1097));
#1096=SURFACE_STYLE_FILL_AREA(#1098);
#1097=SURFACE_STYLE_FILL_AREA(#1099);
#1098=FILL_AREA_STYLE('Steel - Satin',(#1100));
#1099=FILL_AREA_STYLE('Opaque(165,165,165)',(#1101));
#1100=FILL_AREA_STYLE_COLOUR('Steel - Satin',#1102);
#1101=FILL_AREA_STYLE_COLOUR('Opaque(165,165,165)',#1103);
#1102=COLOUR_RGB('Steel - Satin',0.627450980392157,0.627450980392157,0.627450980392157);
#1103=COLOUR_RGB('Opaque(165,165,165)',0.647058823529412,0.647058823529412,
0.647058823529412);
ENDSEC;
END-ISO-10303-21;
