ISO-10303-21;
HEADER;
/* Generated by software containing ST-Developer
 * from STEP Tools, Inc. (www.steptools.com) 
 */

FILE_DESCRIPTION(
/* description */ ('STEP AP242 Edition 2'),
/* implementation_level */ '2;1');

FILE_NAME(
/* name */ 'boardkey_casebottom.step',
/* time_stamp */ '2026-02-18T11:07:06-05:00',
/* author */ (''),
/* organization */ (''),
/* preprocessor_version */ 'ST-DEVELOPER v20.1',
/* originating_system */ 'Autodesk Translation Framework v14.21.0.0',
/* authorisation */ '');

FILE_SCHEMA (('AUTOMOTIVE_DESIGN { 1 0 10303 214 3 1 1 }'));
ENDSEC;

DATA;
#10=MECHANICAL_DESIGN_GEOMETRIC_PRESENTATION_REPRESENTATION('',(#13),#1465);
#11=SHAPE_REPRESENTATION_RELATIONSHIP('SRR','None',#1471,#12);
#12=ADVANCED_BREP_SHAPE_REPRESENTATION('',(#14),#1464);
#13=STYLED_ITEM('',(#1481),#14);
#14=MANIFOLD_SOLID_BREP('Body1',#853);
#15=FACE_BOUND('',#176,.T.);
#16=FACE_BOUND('',#177,.T.);
#17=FACE_BOUND('',#178,.T.);
#18=FACE_BOUND('',#179,.T.);
#19=FACE_BOUND('',#180,.T.);
#20=FACE_BOUND('',#181,.T.);
#21=FACE_BOUND('',#182,.T.);
#22=FACE_BOUND('',#183,.T.);
#23=FACE_BOUND('',#185,.T.);
#24=FACE_BOUND('',#187,.T.);
#25=FACE_BOUND('',#189,.T.);
#26=FACE_BOUND('',#191,.T.);
#27=FACE_BOUND('',#193,.T.);
#28=FACE_BOUND('',#195,.T.);
#29=FACE_BOUND('',#197,.T.);
#30=FACE_BOUND('',#215,.T.);
#31=FACE_BOUND('',#216,.T.);
#32=FACE_BOUND('',#217,.T.);
#33=FACE_BOUND('',#218,.T.);
#34=FACE_BOUND('',#219,.T.);
#35=FACE_BOUND('',#220,.T.);
#36=FACE_BOUND('',#221,.T.);
#37=FACE_BOUND('',#222,.T.);
#38=FACE_BOUND('',#224,.T.);
#39=CIRCLE('',#869,0.003);
#40=CIRCLE('',#870,0.003);
#41=CIRCLE('',#873,0.00300000000000005);
#42=CIRCLE('',#874,0.00300000000000005);
#43=CIRCLE('',#877,0.00300000000000005);
#44=CIRCLE('',#878,0.00300000000000005);
#45=CIRCLE('',#881,0.00205);
#46=CIRCLE('',#882,0.00205);
#47=CIRCLE('',#884,0.00205);
#48=CIRCLE('',#885,0.00205);
#49=CIRCLE('',#887,0.00205);
#50=CIRCLE('',#888,0.00205);
#51=CIRCLE('',#890,0.00205);
#52=CIRCLE('',#891,0.00205);
#53=CIRCLE('',#893,0.00205);
#54=CIRCLE('',#894,0.00205);
#55=CIRCLE('',#896,0.00205);
#56=CIRCLE('',#897,0.00205);
#57=CIRCLE('',#899,0.00205);
#58=CIRCLE('',#900,0.00205);
#59=CIRCLE('',#902,0.00205);
#60=CIRCLE('',#903,0.00205);
#61=CIRCLE('',#905,0.003);
#62=CIRCLE('',#906,0.003);
#63=CIRCLE('',#909,0.00115);
#64=CIRCLE('',#911,0.00115);
#65=CIRCLE('',#913,0.00115);
#66=CIRCLE('',#915,0.00115);
#67=CIRCLE('',#917,0.00115000000000001);
#68=CIRCLE('',#919,0.00115000000000001);
#69=CIRCLE('',#921,0.00115000000000001);
#70=CIRCLE('',#923,0.004);
#71=CIRCLE('',#924,0.004);
#72=CIRCLE('',#927,0.004);
#73=CIRCLE('',#928,0.004);
#74=CIRCLE('',#931,0.00400000000000007);
#75=CIRCLE('',#932,0.00400000000000007);
#76=CIRCLE('',#935,0.004);
#77=CIRCLE('',#936,0.004);
#78=CIRCLE('',#938,0.00115);
#79=CIRCLE('',#940,0.00115);
#80=CIRCLE('',#942,0.00115);
#81=CIRCLE('',#944,0.00115000000000001);
#82=CIRCLE('',#946,0.00115000000000001);
#83=CIRCLE('',#948,0.00115000000000001);
#84=CIRCLE('',#950,0.00115000000000001);
#85=CIRCLE('',#951,0.00115000000000001);
#86=CIRCLE('',#954,0.00115);
#87=CYLINDRICAL_SURFACE('',#868,0.003);
#88=CYLINDRICAL_SURFACE('',#872,0.00300000000000005);
#89=CYLINDRICAL_SURFACE('',#876,0.00300000000000005);
#90=CYLINDRICAL_SURFACE('',#880,0.00205);
#91=CYLINDRICAL_SURFACE('',#883,0.00205);
#92=CYLINDRICAL_SURFACE('',#886,0.00205);
#93=CYLINDRICAL_SURFACE('',#889,0.00205);
#94=CYLINDRICAL_SURFACE('',#892,0.00205);
#95=CYLINDRICAL_SURFACE('',#895,0.00205);
#96=CYLINDRICAL_SURFACE('',#898,0.00205);
#97=CYLINDRICAL_SURFACE('',#901,0.00205);
#98=CYLINDRICAL_SURFACE('',#904,0.003);
#99=CYLINDRICAL_SURFACE('',#922,0.004);
#100=CYLINDRICAL_SURFACE('',#926,0.004);
#101=CYLINDRICAL_SURFACE('',#930,0.00400000000000007);
#102=CYLINDRICAL_SURFACE('',#934,0.004);
#103=CYLINDRICAL_SURFACE('',#937,0.00115);
#104=CYLINDRICAL_SURFACE('',#939,0.00115);
#105=CYLINDRICAL_SURFACE('',#941,0.00115);
#106=CYLINDRICAL_SURFACE('',#943,0.00115000000000001);
#107=CYLINDRICAL_SURFACE('',#945,0.00115000000000001);
#108=CYLINDRICAL_SURFACE('',#947,0.00115000000000001);
#109=CYLINDRICAL_SURFACE('',#949,0.00115000000000001);
#110=CYLINDRICAL_SURFACE('',#953,0.00115);
#111=FACE_OUTER_BOUND('',#159,.T.);
#112=FACE_OUTER_BOUND('',#160,.T.);
#113=FACE_OUTER_BOUND('',#161,.T.);
#114=FACE_OUTER_BOUND('',#162,.T.);
#115=FACE_OUTER_BOUND('',#163,.T.);
#116=FACE_OUTER_BOUND('',#164,.T.);
#117=FACE_OUTER_BOUND('',#165,.T.);
#118=FACE_OUTER_BOUND('',#166,.T.);
#119=FACE_OUTER_BOUND('',#167,.T.);
#120=FACE_OUTER_BOUND('',#168,.T.);
#121=FACE_OUTER_BOUND('',#169,.T.);
#122=FACE_OUTER_BOUND('',#170,.T.);
#123=FACE_OUTER_BOUND('',#171,.T.);
#124=FACE_OUTER_BOUND('',#172,.T.);
#125=FACE_OUTER_BOUND('',#173,.T.);
#126=FACE_OUTER_BOUND('',#174,.T.);
#127=FACE_OUTER_BOUND('',#175,.T.);
#128=FACE_OUTER_BOUND('',#184,.T.);
#129=FACE_OUTER_BOUND('',#186,.T.);
#130=FACE_OUTER_BOUND('',#188,.T.);
#131=FACE_OUTER_BOUND('',#190,.T.);
#132=FACE_OUTER_BOUND('',#192,.T.);
#133=FACE_OUTER_BOUND('',#194,.T.);
#134=FACE_OUTER_BOUND('',#196,.T.);
#135=FACE_OUTER_BOUND('',#198,.T.);
#136=FACE_OUTER_BOUND('',#199,.T.);
#137=FACE_OUTER_BOUND('',#200,.T.);
#138=FACE_OUTER_BOUND('',#201,.T.);
#139=FACE_OUTER_BOUND('',#202,.T.);
#140=FACE_OUTER_BOUND('',#203,.T.);
#141=FACE_OUTER_BOUND('',#204,.T.);
#142=FACE_OUTER_BOUND('',#205,.T.);
#143=FACE_OUTER_BOUND('',#206,.T.);
#144=FACE_OUTER_BOUND('',#207,.T.);
#145=FACE_OUTER_BOUND('',#208,.T.);
#146=FACE_OUTER_BOUND('',#209,.T.);
#147=FACE_OUTER_BOUND('',#210,.T.);
#148=FACE_OUTER_BOUND('',#211,.T.);
#149=FACE_OUTER_BOUND('',#212,.T.);
#150=FACE_OUTER_BOUND('',#213,.T.);
#151=FACE_OUTER_BOUND('',#214,.T.);
#152=FACE_OUTER_BOUND('',#223,.T.);
#153=FACE_OUTER_BOUND('',#225,.T.);
#154=FACE_OUTER_BOUND('',#226,.T.);
#155=FACE_OUTER_BOUND('',#227,.T.);
#156=FACE_OUTER_BOUND('',#228,.T.);
#157=FACE_OUTER_BOUND('',#229,.T.);
#158=FACE_OUTER_BOUND('',#230,.T.);
#159=EDGE_LOOP('',(#553,#554,#555,#556,#557,#558,#559,#560,#561,#562));
#160=EDGE_LOOP('',(#563,#564,#565,#566));
#161=EDGE_LOOP('',(#567,#568,#569,#570));
#162=EDGE_LOOP('',(#571,#572,#573,#574));
#163=EDGE_LOOP('',(#575,#576,#577,#578));
#164=EDGE_LOOP('',(#579,#580,#581,#582));
#165=EDGE_LOOP('',(#583,#584,#585,#586));
#166=EDGE_LOOP('',(#587,#588,#589,#590));
#167=EDGE_LOOP('',(#591,#592,#593,#594));
#168=EDGE_LOOP('',(#595,#596,#597,#598));
#169=EDGE_LOOP('',(#599,#600,#601,#602));
#170=EDGE_LOOP('',(#603,#604,#605,#606));
#171=EDGE_LOOP('',(#607,#608,#609,#610));
#172=EDGE_LOOP('',(#611,#612,#613,#614));
#173=EDGE_LOOP('',(#615,#616,#617,#618));
#174=EDGE_LOOP('',(#619,#620,#621,#622));
#175=EDGE_LOOP('',(#623,#624,#625,#626,#627,#628,#629,#630));
#176=EDGE_LOOP('',(#631));
#177=EDGE_LOOP('',(#632));
#178=EDGE_LOOP('',(#633));
#179=EDGE_LOOP('',(#634));
#180=EDGE_LOOP('',(#635));
#181=EDGE_LOOP('',(#636));
#182=EDGE_LOOP('',(#637));
#183=EDGE_LOOP('',(#638));
#184=EDGE_LOOP('',(#639));
#185=EDGE_LOOP('',(#640));
#186=EDGE_LOOP('',(#641));
#187=EDGE_LOOP('',(#642));
#188=EDGE_LOOP('',(#643));
#189=EDGE_LOOP('',(#644));
#190=EDGE_LOOP('',(#645));
#191=EDGE_LOOP('',(#646));
#192=EDGE_LOOP('',(#647));
#193=EDGE_LOOP('',(#648));
#194=EDGE_LOOP('',(#649));
#195=EDGE_LOOP('',(#650));
#196=EDGE_LOOP('',(#651));
#197=EDGE_LOOP('',(#652));
#198=EDGE_LOOP('',(#653,#654,#655,#656));
#199=EDGE_LOOP('',(#657,#658,#659,#660));
#200=EDGE_LOOP('',(#661,#662,#663,#664));
#201=EDGE_LOOP('',(#665,#666,#667,#668));
#202=EDGE_LOOP('',(#669,#670,#671,#672));
#203=EDGE_LOOP('',(#673,#674,#675,#676,#677,#678,#679,#680,#681,#682));
#204=EDGE_LOOP('',(#683,#684,#685,#686));
#205=EDGE_LOOP('',(#687,#688,#689,#690));
#206=EDGE_LOOP('',(#691,#692,#693,#694));
#207=EDGE_LOOP('',(#695,#696,#697,#698));
#208=EDGE_LOOP('',(#699,#700,#701,#702));
#209=EDGE_LOOP('',(#703,#704,#705,#706));
#210=EDGE_LOOP('',(#707,#708,#709,#710));
#211=EDGE_LOOP('',(#711,#712,#713,#714));
#212=EDGE_LOOP('',(#715,#716,#717,#718));
#213=EDGE_LOOP('',(#719,#720,#721,#722));
#214=EDGE_LOOP('',(#723,#724,#725,#726,#727,#728,#729,#730,#731,#732,#733,
#734,#735,#736,#737,#738,#739,#740,#741,#742));
#215=EDGE_LOOP('',(#743));
#216=EDGE_LOOP('',(#744));
#217=EDGE_LOOP('',(#745));
#218=EDGE_LOOP('',(#746));
#219=EDGE_LOOP('',(#747));
#220=EDGE_LOOP('',(#748));
#221=EDGE_LOOP('',(#749));
#222=EDGE_LOOP('',(#750));
#223=EDGE_LOOP('',(#751));
#224=EDGE_LOOP('',(#752));
#225=EDGE_LOOP('',(#753,#754,#755,#756,#757,#758,#759,#760));
#226=EDGE_LOOP('',(#761,#762,#763,#764));
#227=EDGE_LOOP('',(#765,#766,#767,#768));
#228=EDGE_LOOP('',(#769,#770,#771,#772));
#229=EDGE_LOOP('',(#773,#774,#775,#776));
#230=EDGE_LOOP('',(#777,#778,#779,#780));
#231=LINE('',#1227,#297);
#232=LINE('',#1229,#298);
#233=LINE('',#1231,#299);
#234=LINE('',#1233,#300);
#235=LINE('',#1235,#301);
#236=LINE('',#1237,#302);
#237=LINE('',#1239,#303);
#238=LINE('',#1241,#304);
#239=LINE('',#1243,#305);
#240=LINE('',#1244,#306);
#241=LINE('',#1249,#307);
#242=LINE('',#1253,#308);
#243=LINE('',#1255,#309);
#244=LINE('',#1256,#310);
#245=LINE('',#1261,#311);
#246=LINE('',#1265,#312);
#247=LINE('',#1267,#313);
#248=LINE('',#1268,#314);
#249=LINE('',#1273,#315);
#250=LINE('',#1277,#316);
#251=LINE('',#1279,#317);
#252=LINE('',#1280,#318);
#253=LINE('',#1285,#319);
#254=LINE('',#1291,#320);
#255=LINE('',#1297,#321);
#256=LINE('',#1303,#322);
#257=LINE('',#1309,#323);
#258=LINE('',#1315,#324);
#259=LINE('',#1321,#325);
#260=LINE('',#1327,#326);
#261=LINE('',#1359,#327);
#262=LINE('',#1362,#328);
#263=LINE('',#1365,#329);
#264=LINE('',#1367,#330);
#265=LINE('',#1368,#331);
#266=LINE('',#1373,#332);
#267=LINE('',#1377,#333);
#268=LINE('',#1379,#334);
#269=LINE('',#1380,#335);
#270=LINE('',#1385,#336);
#271=LINE('',#1390,#337);
#272=LINE('',#1392,#338);
#273=LINE('',#1394,#339);
#274=LINE('',#1396,#340);
#275=LINE('',#1398,#341);
#276=LINE('',#1400,#342);
#277=LINE('',#1401,#343);
#278=LINE('',#1403,#344);
#279=LINE('',#1404,#345);
#280=LINE('',#1409,#346);
#281=LINE('',#1414,#347);
#282=LINE('',#1418,#348);
#283=LINE('',#1422,#349);
#284=LINE('',#1426,#350);
#285=LINE('',#1430,#351);
#286=LINE('',#1434,#352);
#287=LINE('',#1439,#353);
#288=LINE('',#1442,#354);
#289=LINE('',#1443,#355);
#290=LINE('',#1447,#356);
#291=LINE('',#1449,#357);
#292=LINE('',#1450,#358);
#293=LINE('',#1454,#359);
#294=LINE('',#1455,#360);
#295=LINE('',#1457,#361);
#296=LINE('',#1459,#362);
#297=VECTOR('',#967,1.);
#298=VECTOR('',#968,1.);
#299=VECTOR('',#969,1.);
#300=VECTOR('',#970,1.);
#301=VECTOR('',#971,1.);
#302=VECTOR('',#972,1.);
#303=VECTOR('',#973,1.);
#304=VECTOR('',#974,1.);
#305=VECTOR('',#975,1.);
#306=VECTOR('',#976,1.);
#307=VECTOR('',#981,1.);
#308=VECTOR('',#986,1.);
#309=VECTOR('',#987,1.);
#310=VECTOR('',#988,1.);
#311=VECTOR('',#993,1.);
#312=VECTOR('',#998,1.);
#313=VECTOR('',#999,1.);
#314=VECTOR('',#1000,1.);
#315=VECTOR('',#1005,1.);
#316=VECTOR('',#1010,1.);
#317=VECTOR('',#1011,1.);
#318=VECTOR('',#1012,1.);
#319=VECTOR('',#1017,0.00205);
#320=VECTOR('',#1024,0.00205);
#321=VECTOR('',#1031,0.00205);
#322=VECTOR('',#1038,0.00205);
#323=VECTOR('',#1045,0.00205);
#324=VECTOR('',#1052,0.00205);
#325=VECTOR('',#1059,0.00205);
#326=VECTOR('',#1066,0.00205);
#327=VECTOR('',#1109,1.);
#328=VECTOR('',#1112,1.);
#329=VECTOR('',#1115,1.);
#330=VECTOR('',#1116,1.);
#331=VECTOR('',#1117,1.);
#332=VECTOR('',#1122,1.);
#333=VECTOR('',#1127,1.);
#334=VECTOR('',#1128,1.);
#335=VECTOR('',#1129,1.);
#336=VECTOR('',#1134,1.);
#337=VECTOR('',#1139,1.);
#338=VECTOR('',#1140,1.);
#339=VECTOR('',#1141,1.);
#340=VECTOR('',#1142,1.);
#341=VECTOR('',#1143,1.);
#342=VECTOR('',#1144,1.);
#343=VECTOR('',#1145,1.);
#344=VECTOR('',#1146,1.);
#345=VECTOR('',#1147,1.);
#346=VECTOR('',#1152,1.);
#347=VECTOR('',#1159,0.00115);
#348=VECTOR('',#1164,0.00115);
#349=VECTOR('',#1169,0.00115);
#350=VECTOR('',#1174,0.00115000000000001);
#351=VECTOR('',#1179,0.00115000000000001);
#352=VECTOR('',#1184,0.00115000000000001);
#353=VECTOR('',#1189,0.00115000000000001);
#354=VECTOR('',#1194,1.);
#355=VECTOR('',#1195,1.);
#356=VECTOR('',#1200,0.00115);
#357=VECTOR('',#1203,1.);
#358=VECTOR('',#1204,1.);
#359=VECTOR('',#1211,1.);
#360=VECTOR('',#1212,1.);
#361=VECTOR('',#1215,1.);
#362=VECTOR('',#1218,1.);
#363=VERTEX_POINT('',#1225);
#364=VERTEX_POINT('',#1226);
#365=VERTEX_POINT('',#1228);
#366=VERTEX_POINT('',#1230);
#367=VERTEX_POINT('',#1232);
#368=VERTEX_POINT('',#1234);
#369=VERTEX_POINT('',#1236);
#370=VERTEX_POINT('',#1238);
#371=VERTEX_POINT('',#1240);
#372=VERTEX_POINT('',#1242);
#373=VERTEX_POINT('',#1246);
#374=VERTEX_POINT('',#1248);
#375=VERTEX_POINT('',#1252);
#376=VERTEX_POINT('',#1254);
#377=VERTEX_POINT('',#1258);
#378=VERTEX_POINT('',#1260);
#379=VERTEX_POINT('',#1264);
#380=VERTEX_POINT('',#1266);
#381=VERTEX_POINT('',#1270);
#382=VERTEX_POINT('',#1272);
#383=VERTEX_POINT('',#1276);
#384=VERTEX_POINT('',#1278);
#385=VERTEX_POINT('',#1282);
#386=VERTEX_POINT('',#1284);
#387=VERTEX_POINT('',#1288);
#388=VERTEX_POINT('',#1290);
#389=VERTEX_POINT('',#1294);
#390=VERTEX_POINT('',#1296);
#391=VERTEX_POINT('',#1300);
#392=VERTEX_POINT('',#1302);
#393=VERTEX_POINT('',#1306);
#394=VERTEX_POINT('',#1308);
#395=VERTEX_POINT('',#1312);
#396=VERTEX_POINT('',#1314);
#397=VERTEX_POINT('',#1318);
#398=VERTEX_POINT('',#1320);
#399=VERTEX_POINT('',#1324);
#400=VERTEX_POINT('',#1326);
#401=VERTEX_POINT('',#1334);
#402=VERTEX_POINT('',#1337);
#403=VERTEX_POINT('',#1340);
#404=VERTEX_POINT('',#1343);
#405=VERTEX_POINT('',#1346);
#406=VERTEX_POINT('',#1349);
#407=VERTEX_POINT('',#1352);
#408=VERTEX_POINT('',#1355);
#409=VERTEX_POINT('',#1356);
#410=VERTEX_POINT('',#1358);
#411=VERTEX_POINT('',#1360);
#412=VERTEX_POINT('',#1364);
#413=VERTEX_POINT('',#1366);
#414=VERTEX_POINT('',#1370);
#415=VERTEX_POINT('',#1372);
#416=VERTEX_POINT('',#1376);
#417=VERTEX_POINT('',#1378);
#418=VERTEX_POINT('',#1382);
#419=VERTEX_POINT('',#1384);
#420=VERTEX_POINT('',#1388);
#421=VERTEX_POINT('',#1389);
#422=VERTEX_POINT('',#1391);
#423=VERTEX_POINT('',#1393);
#424=VERTEX_POINT('',#1395);
#425=VERTEX_POINT('',#1397);
#426=VERTEX_POINT('',#1399);
#427=VERTEX_POINT('',#1402);
#428=VERTEX_POINT('',#1406);
#429=VERTEX_POINT('',#1408);
#430=VERTEX_POINT('',#1412);
#431=VERTEX_POINT('',#1416);
#432=VERTEX_POINT('',#1420);
#433=VERTEX_POINT('',#1424);
#434=VERTEX_POINT('',#1428);
#435=VERTEX_POINT('',#1432);
#436=VERTEX_POINT('',#1436);
#437=VERTEX_POINT('',#1438);
#438=VERTEX_POINT('',#1445);
#439=EDGE_CURVE('',#363,#364,#231,.T.);
#440=EDGE_CURVE('',#363,#365,#232,.T.);
#441=EDGE_CURVE('',#365,#366,#233,.T.);
#442=EDGE_CURVE('',#367,#366,#234,.T.);
#443=EDGE_CURVE('',#367,#368,#235,.T.);
#444=EDGE_CURVE('',#368,#369,#236,.T.);
#445=EDGE_CURVE('',#370,#369,#237,.T.);
#446=EDGE_CURVE('',#371,#370,#238,.T.);
#447=EDGE_CURVE('',#372,#371,#239,.T.);
#448=EDGE_CURVE('',#372,#364,#240,.F.);
#449=EDGE_CURVE('',#369,#373,#39,.T.);
#450=EDGE_CURVE('',#374,#373,#241,.T.);
#451=EDGE_CURVE('',#370,#374,#40,.T.);
#452=EDGE_CURVE('',#373,#375,#242,.T.);
#453=EDGE_CURVE('',#376,#375,#243,.T.);
#454=EDGE_CURVE('',#374,#376,#244,.T.);
#455=EDGE_CURVE('',#375,#377,#41,.T.);
#456=EDGE_CURVE('',#378,#377,#245,.T.);
#457=EDGE_CURVE('',#376,#378,#42,.T.);
#458=EDGE_CURVE('',#379,#377,#246,.T.);
#459=EDGE_CURVE('',#380,#379,#247,.T.);
#460=EDGE_CURVE('',#380,#378,#248,.T.);
#461=EDGE_CURVE('',#379,#381,#43,.T.);
#462=EDGE_CURVE('',#382,#381,#249,.T.);
#463=EDGE_CURVE('',#380,#382,#44,.T.);
#464=EDGE_CURVE('',#383,#381,#250,.T.);
#465=EDGE_CURVE('',#384,#383,#251,.T.);
#466=EDGE_CURVE('',#384,#382,#252,.T.);
#467=EDGE_CURVE('',#385,#385,#45,.T.);
#468=EDGE_CURVE('',#385,#386,#253,.T.);
#469=EDGE_CURVE('',#386,#386,#46,.T.);
#470=EDGE_CURVE('',#387,#387,#47,.T.);
#471=EDGE_CURVE('',#387,#388,#254,.T.);
#472=EDGE_CURVE('',#388,#388,#48,.T.);
#473=EDGE_CURVE('',#389,#389,#49,.T.);
#474=EDGE_CURVE('',#389,#390,#255,.T.);
#475=EDGE_CURVE('',#390,#390,#50,.T.);
#476=EDGE_CURVE('',#391,#391,#51,.T.);
#477=EDGE_CURVE('',#391,#392,#256,.T.);
#478=EDGE_CURVE('',#392,#392,#52,.T.);
#479=EDGE_CURVE('',#393,#393,#53,.T.);
#480=EDGE_CURVE('',#393,#394,#257,.T.);
#481=EDGE_CURVE('',#394,#394,#54,.T.);
#482=EDGE_CURVE('',#395,#395,#55,.T.);
#483=EDGE_CURVE('',#395,#396,#258,.T.);
#484=EDGE_CURVE('',#396,#396,#56,.T.);
#485=EDGE_CURVE('',#397,#397,#57,.T.);
#486=EDGE_CURVE('',#397,#398,#259,.T.);
#487=EDGE_CURVE('',#398,#398,#58,.T.);
#488=EDGE_CURVE('',#399,#399,#59,.T.);
#489=EDGE_CURVE('',#399,#400,#260,.T.);
#490=EDGE_CURVE('',#400,#400,#60,.T.);
#491=EDGE_CURVE('',#383,#368,#61,.T.);
#492=EDGE_CURVE('',#384,#367,#62,.T.);
#493=EDGE_CURVE('',#401,#401,#63,.T.);
#494=EDGE_CURVE('',#402,#402,#64,.T.);
#495=EDGE_CURVE('',#403,#403,#65,.T.);
#496=EDGE_CURVE('',#404,#404,#66,.T.);
#497=EDGE_CURVE('',#405,#405,#67,.T.);
#498=EDGE_CURVE('',#406,#406,#68,.T.);
#499=EDGE_CURVE('',#407,#407,#69,.T.);
#500=EDGE_CURVE('',#408,#409,#70,.T.);
#501=EDGE_CURVE('',#410,#408,#261,.T.);
#502=EDGE_CURVE('',#410,#411,#71,.T.);
#503=EDGE_CURVE('',#411,#409,#262,.T.);
#504=EDGE_CURVE('',#412,#408,#263,.T.);
#505=EDGE_CURVE('',#413,#412,#264,.T.);
#506=EDGE_CURVE('',#413,#410,#265,.T.);
#507=EDGE_CURVE('',#414,#412,#72,.T.);
#508=EDGE_CURVE('',#415,#414,#266,.T.);
#509=EDGE_CURVE('',#415,#413,#73,.T.);
#510=EDGE_CURVE('',#416,#414,#267,.T.);
#511=EDGE_CURVE('',#417,#416,#268,.T.);
#512=EDGE_CURVE('',#417,#415,#269,.T.);
#513=EDGE_CURVE('',#418,#416,#74,.T.);
#514=EDGE_CURVE('',#419,#418,#270,.T.);
#515=EDGE_CURVE('',#419,#417,#75,.T.);
#516=EDGE_CURVE('',#420,#421,#271,.T.);
#517=EDGE_CURVE('',#420,#422,#272,.T.);
#518=EDGE_CURVE('',#422,#423,#273,.T.);
#519=EDGE_CURVE('',#424,#423,#274,.T.);
#520=EDGE_CURVE('',#424,#425,#275,.F.);
#521=EDGE_CURVE('',#426,#425,#276,.T.);
#522=EDGE_CURVE('',#419,#426,#277,.T.);
#523=EDGE_CURVE('',#418,#427,#278,.T.);
#524=EDGE_CURVE('',#421,#427,#279,.T.);
#525=EDGE_CURVE('',#428,#427,#76,.T.);
#526=EDGE_CURVE('',#429,#428,#280,.T.);
#527=EDGE_CURVE('',#429,#421,#77,.T.);
#528=EDGE_CURVE('',#430,#430,#78,.T.);
#529=EDGE_CURVE('',#430,#402,#281,.T.);
#530=EDGE_CURVE('',#431,#431,#79,.T.);
#531=EDGE_CURVE('',#431,#403,#282,.T.);
#532=EDGE_CURVE('',#432,#432,#80,.T.);
#533=EDGE_CURVE('',#432,#404,#283,.T.);
#534=EDGE_CURVE('',#433,#433,#81,.T.);
#535=EDGE_CURVE('',#433,#405,#284,.T.);
#536=EDGE_CURVE('',#434,#434,#82,.T.);
#537=EDGE_CURVE('',#434,#406,#285,.T.);
#538=EDGE_CURVE('',#435,#435,#83,.T.);
#539=EDGE_CURVE('',#435,#407,#286,.T.);
#540=EDGE_CURVE('',#436,#436,#84,.T.);
#541=EDGE_CURVE('',#436,#437,#287,.T.);
#542=EDGE_CURVE('',#437,#437,#85,.T.);
#543=EDGE_CURVE('',#428,#409,#288,.T.);
#544=EDGE_CURVE('',#429,#411,#289,.T.);
#545=EDGE_CURVE('',#438,#438,#86,.T.);
#546=EDGE_CURVE('',#438,#401,#290,.T.);
#547=EDGE_CURVE('',#420,#366,#291,.T.);
#548=EDGE_CURVE('',#426,#371,#292,.T.);
#549=EDGE_CURVE('',#364,#424,#293,.T.);
#550=EDGE_CURVE('',#423,#363,#294,.T.);
#551=EDGE_CURVE('',#365,#422,#295,.T.);
#552=EDGE_CURVE('',#425,#372,#296,.T.);
#553=ORIENTED_EDGE('',*,*,#439,.F.);
#554=ORIENTED_EDGE('',*,*,#440,.T.);
#555=ORIENTED_EDGE('',*,*,#441,.T.);
#556=ORIENTED_EDGE('',*,*,#442,.F.);
#557=ORIENTED_EDGE('',*,*,#443,.T.);
#558=ORIENTED_EDGE('',*,*,#444,.T.);
#559=ORIENTED_EDGE('',*,*,#445,.F.);
#560=ORIENTED_EDGE('',*,*,#446,.F.);
#561=ORIENTED_EDGE('',*,*,#447,.F.);
#562=ORIENTED_EDGE('',*,*,#448,.T.);
#563=ORIENTED_EDGE('',*,*,#449,.T.);
#564=ORIENTED_EDGE('',*,*,#450,.F.);
#565=ORIENTED_EDGE('',*,*,#451,.F.);
#566=ORIENTED_EDGE('',*,*,#445,.T.);
#567=ORIENTED_EDGE('',*,*,#452,.T.);
#568=ORIENTED_EDGE('',*,*,#453,.F.);
#569=ORIENTED_EDGE('',*,*,#454,.F.);
#570=ORIENTED_EDGE('',*,*,#450,.T.);
#571=ORIENTED_EDGE('',*,*,#455,.T.);
#572=ORIENTED_EDGE('',*,*,#456,.F.);
#573=ORIENTED_EDGE('',*,*,#457,.F.);
#574=ORIENTED_EDGE('',*,*,#453,.T.);
#575=ORIENTED_EDGE('',*,*,#458,.F.);
#576=ORIENTED_EDGE('',*,*,#459,.F.);
#577=ORIENTED_EDGE('',*,*,#460,.T.);
#578=ORIENTED_EDGE('',*,*,#456,.T.);
#579=ORIENTED_EDGE('',*,*,#461,.T.);
#580=ORIENTED_EDGE('',*,*,#462,.F.);
#581=ORIENTED_EDGE('',*,*,#463,.F.);
#582=ORIENTED_EDGE('',*,*,#459,.T.);
#583=ORIENTED_EDGE('',*,*,#464,.F.);
#584=ORIENTED_EDGE('',*,*,#465,.F.);
#585=ORIENTED_EDGE('',*,*,#466,.T.);
#586=ORIENTED_EDGE('',*,*,#462,.T.);
#587=ORIENTED_EDGE('',*,*,#467,.T.);
#588=ORIENTED_EDGE('',*,*,#468,.T.);
#589=ORIENTED_EDGE('',*,*,#469,.F.);
#590=ORIENTED_EDGE('',*,*,#468,.F.);
#591=ORIENTED_EDGE('',*,*,#470,.T.);
#592=ORIENTED_EDGE('',*,*,#471,.T.);
#593=ORIENTED_EDGE('',*,*,#472,.F.);
#594=ORIENTED_EDGE('',*,*,#471,.F.);
#595=ORIENTED_EDGE('',*,*,#473,.T.);
#596=ORIENTED_EDGE('',*,*,#474,.T.);
#597=ORIENTED_EDGE('',*,*,#475,.F.);
#598=ORIENTED_EDGE('',*,*,#474,.F.);
#599=ORIENTED_EDGE('',*,*,#476,.T.);
#600=ORIENTED_EDGE('',*,*,#477,.T.);
#601=ORIENTED_EDGE('',*,*,#478,.F.);
#602=ORIENTED_EDGE('',*,*,#477,.F.);
#603=ORIENTED_EDGE('',*,*,#479,.T.);
#604=ORIENTED_EDGE('',*,*,#480,.T.);
#605=ORIENTED_EDGE('',*,*,#481,.F.);
#606=ORIENTED_EDGE('',*,*,#480,.F.);
#607=ORIENTED_EDGE('',*,*,#482,.T.);
#608=ORIENTED_EDGE('',*,*,#483,.T.);
#609=ORIENTED_EDGE('',*,*,#484,.F.);
#610=ORIENTED_EDGE('',*,*,#483,.F.);
#611=ORIENTED_EDGE('',*,*,#485,.T.);
#612=ORIENTED_EDGE('',*,*,#486,.T.);
#613=ORIENTED_EDGE('',*,*,#487,.F.);
#614=ORIENTED_EDGE('',*,*,#486,.F.);
#615=ORIENTED_EDGE('',*,*,#488,.T.);
#616=ORIENTED_EDGE('',*,*,#489,.T.);
#617=ORIENTED_EDGE('',*,*,#490,.F.);
#618=ORIENTED_EDGE('',*,*,#489,.F.);
#619=ORIENTED_EDGE('',*,*,#491,.T.);
#620=ORIENTED_EDGE('',*,*,#443,.F.);
#621=ORIENTED_EDGE('',*,*,#492,.F.);
#622=ORIENTED_EDGE('',*,*,#465,.T.);
#623=ORIENTED_EDGE('',*,*,#444,.F.);
#624=ORIENTED_EDGE('',*,*,#491,.F.);
#625=ORIENTED_EDGE('',*,*,#464,.T.);
#626=ORIENTED_EDGE('',*,*,#461,.F.);
#627=ORIENTED_EDGE('',*,*,#458,.T.);
#628=ORIENTED_EDGE('',*,*,#455,.F.);
#629=ORIENTED_EDGE('',*,*,#452,.F.);
#630=ORIENTED_EDGE('',*,*,#449,.F.);
#631=ORIENTED_EDGE('',*,*,#490,.T.);
#632=ORIENTED_EDGE('',*,*,#487,.T.);
#633=ORIENTED_EDGE('',*,*,#484,.T.);
#634=ORIENTED_EDGE('',*,*,#481,.T.);
#635=ORIENTED_EDGE('',*,*,#478,.T.);
#636=ORIENTED_EDGE('',*,*,#475,.T.);
#637=ORIENTED_EDGE('',*,*,#472,.T.);
#638=ORIENTED_EDGE('',*,*,#469,.T.);
#639=ORIENTED_EDGE('',*,*,#488,.F.);
#640=ORIENTED_EDGE('',*,*,#493,.T.);
#641=ORIENTED_EDGE('',*,*,#485,.F.);
#642=ORIENTED_EDGE('',*,*,#494,.T.);
#643=ORIENTED_EDGE('',*,*,#482,.F.);
#644=ORIENTED_EDGE('',*,*,#495,.T.);
#645=ORIENTED_EDGE('',*,*,#479,.F.);
#646=ORIENTED_EDGE('',*,*,#496,.T.);
#647=ORIENTED_EDGE('',*,*,#476,.F.);
#648=ORIENTED_EDGE('',*,*,#497,.T.);
#649=ORIENTED_EDGE('',*,*,#473,.F.);
#650=ORIENTED_EDGE('',*,*,#498,.T.);
#651=ORIENTED_EDGE('',*,*,#470,.F.);
#652=ORIENTED_EDGE('',*,*,#499,.T.);
#653=ORIENTED_EDGE('',*,*,#500,.F.);
#654=ORIENTED_EDGE('',*,*,#501,.F.);
#655=ORIENTED_EDGE('',*,*,#502,.T.);
#656=ORIENTED_EDGE('',*,*,#503,.T.);
#657=ORIENTED_EDGE('',*,*,#504,.F.);
#658=ORIENTED_EDGE('',*,*,#505,.F.);
#659=ORIENTED_EDGE('',*,*,#506,.T.);
#660=ORIENTED_EDGE('',*,*,#501,.T.);
#661=ORIENTED_EDGE('',*,*,#507,.F.);
#662=ORIENTED_EDGE('',*,*,#508,.F.);
#663=ORIENTED_EDGE('',*,*,#509,.T.);
#664=ORIENTED_EDGE('',*,*,#505,.T.);
#665=ORIENTED_EDGE('',*,*,#510,.F.);
#666=ORIENTED_EDGE('',*,*,#511,.F.);
#667=ORIENTED_EDGE('',*,*,#512,.T.);
#668=ORIENTED_EDGE('',*,*,#508,.T.);
#669=ORIENTED_EDGE('',*,*,#513,.F.);
#670=ORIENTED_EDGE('',*,*,#514,.F.);
#671=ORIENTED_EDGE('',*,*,#515,.T.);
#672=ORIENTED_EDGE('',*,*,#511,.T.);
#673=ORIENTED_EDGE('',*,*,#516,.F.);
#674=ORIENTED_EDGE('',*,*,#517,.T.);
#675=ORIENTED_EDGE('',*,*,#518,.T.);
#676=ORIENTED_EDGE('',*,*,#519,.F.);
#677=ORIENTED_EDGE('',*,*,#520,.T.);
#678=ORIENTED_EDGE('',*,*,#521,.F.);
#679=ORIENTED_EDGE('',*,*,#522,.F.);
#680=ORIENTED_EDGE('',*,*,#514,.T.);
#681=ORIENTED_EDGE('',*,*,#523,.T.);
#682=ORIENTED_EDGE('',*,*,#524,.F.);
#683=ORIENTED_EDGE('',*,*,#525,.F.);
#684=ORIENTED_EDGE('',*,*,#526,.F.);
#685=ORIENTED_EDGE('',*,*,#527,.T.);
#686=ORIENTED_EDGE('',*,*,#524,.T.);
#687=ORIENTED_EDGE('',*,*,#528,.T.);
#688=ORIENTED_EDGE('',*,*,#529,.T.);
#689=ORIENTED_EDGE('',*,*,#494,.F.);
#690=ORIENTED_EDGE('',*,*,#529,.F.);
#691=ORIENTED_EDGE('',*,*,#530,.T.);
#692=ORIENTED_EDGE('',*,*,#531,.T.);
#693=ORIENTED_EDGE('',*,*,#495,.F.);
#694=ORIENTED_EDGE('',*,*,#531,.F.);
#695=ORIENTED_EDGE('',*,*,#532,.T.);
#696=ORIENTED_EDGE('',*,*,#533,.T.);
#697=ORIENTED_EDGE('',*,*,#496,.F.);
#698=ORIENTED_EDGE('',*,*,#533,.F.);
#699=ORIENTED_EDGE('',*,*,#534,.T.);
#700=ORIENTED_EDGE('',*,*,#535,.T.);
#701=ORIENTED_EDGE('',*,*,#497,.F.);
#702=ORIENTED_EDGE('',*,*,#535,.F.);
#703=ORIENTED_EDGE('',*,*,#536,.T.);
#704=ORIENTED_EDGE('',*,*,#537,.T.);
#705=ORIENTED_EDGE('',*,*,#498,.F.);
#706=ORIENTED_EDGE('',*,*,#537,.F.);
#707=ORIENTED_EDGE('',*,*,#538,.T.);
#708=ORIENTED_EDGE('',*,*,#539,.T.);
#709=ORIENTED_EDGE('',*,*,#499,.F.);
#710=ORIENTED_EDGE('',*,*,#539,.F.);
#711=ORIENTED_EDGE('',*,*,#540,.T.);
#712=ORIENTED_EDGE('',*,*,#541,.T.);
#713=ORIENTED_EDGE('',*,*,#542,.F.);
#714=ORIENTED_EDGE('',*,*,#541,.F.);
#715=ORIENTED_EDGE('',*,*,#543,.T.);
#716=ORIENTED_EDGE('',*,*,#503,.F.);
#717=ORIENTED_EDGE('',*,*,#544,.F.);
#718=ORIENTED_EDGE('',*,*,#526,.T.);
#719=ORIENTED_EDGE('',*,*,#545,.T.);
#720=ORIENTED_EDGE('',*,*,#546,.T.);
#721=ORIENTED_EDGE('',*,*,#493,.F.);
#722=ORIENTED_EDGE('',*,*,#546,.F.);
#723=ORIENTED_EDGE('',*,*,#547,.F.);
#724=ORIENTED_EDGE('',*,*,#516,.T.);
#725=ORIENTED_EDGE('',*,*,#527,.F.);
#726=ORIENTED_EDGE('',*,*,#544,.T.);
#727=ORIENTED_EDGE('',*,*,#502,.F.);
#728=ORIENTED_EDGE('',*,*,#506,.F.);
#729=ORIENTED_EDGE('',*,*,#509,.F.);
#730=ORIENTED_EDGE('',*,*,#512,.F.);
#731=ORIENTED_EDGE('',*,*,#515,.F.);
#732=ORIENTED_EDGE('',*,*,#522,.T.);
#733=ORIENTED_EDGE('',*,*,#548,.T.);
#734=ORIENTED_EDGE('',*,*,#446,.T.);
#735=ORIENTED_EDGE('',*,*,#451,.T.);
#736=ORIENTED_EDGE('',*,*,#454,.T.);
#737=ORIENTED_EDGE('',*,*,#457,.T.);
#738=ORIENTED_EDGE('',*,*,#460,.F.);
#739=ORIENTED_EDGE('',*,*,#463,.T.);
#740=ORIENTED_EDGE('',*,*,#466,.F.);
#741=ORIENTED_EDGE('',*,*,#492,.T.);
#742=ORIENTED_EDGE('',*,*,#442,.T.);
#743=ORIENTED_EDGE('',*,*,#540,.F.);
#744=ORIENTED_EDGE('',*,*,#538,.F.);
#745=ORIENTED_EDGE('',*,*,#536,.F.);
#746=ORIENTED_EDGE('',*,*,#534,.F.);
#747=ORIENTED_EDGE('',*,*,#532,.F.);
#748=ORIENTED_EDGE('',*,*,#530,.F.);
#749=ORIENTED_EDGE('',*,*,#528,.F.);
#750=ORIENTED_EDGE('',*,*,#545,.F.);
#751=ORIENTED_EDGE('',*,*,#467,.F.);
#752=ORIENTED_EDGE('',*,*,#542,.T.);
#753=ORIENTED_EDGE('',*,*,#504,.T.);
#754=ORIENTED_EDGE('',*,*,#500,.T.);
#755=ORIENTED_EDGE('',*,*,#543,.F.);
#756=ORIENTED_EDGE('',*,*,#525,.T.);
#757=ORIENTED_EDGE('',*,*,#523,.F.);
#758=ORIENTED_EDGE('',*,*,#513,.T.);
#759=ORIENTED_EDGE('',*,*,#510,.T.);
#760=ORIENTED_EDGE('',*,*,#507,.T.);
#761=ORIENTED_EDGE('',*,*,#439,.T.);
#762=ORIENTED_EDGE('',*,*,#549,.T.);
#763=ORIENTED_EDGE('',*,*,#519,.T.);
#764=ORIENTED_EDGE('',*,*,#550,.T.);
#765=ORIENTED_EDGE('',*,*,#441,.F.);
#766=ORIENTED_EDGE('',*,*,#551,.T.);
#767=ORIENTED_EDGE('',*,*,#517,.F.);
#768=ORIENTED_EDGE('',*,*,#547,.T.);
#769=ORIENTED_EDGE('',*,*,#521,.T.);
#770=ORIENTED_EDGE('',*,*,#552,.T.);
#771=ORIENTED_EDGE('',*,*,#447,.T.);
#772=ORIENTED_EDGE('',*,*,#548,.F.);
#773=ORIENTED_EDGE('',*,*,#448,.F.);
#774=ORIENTED_EDGE('',*,*,#552,.F.);
#775=ORIENTED_EDGE('',*,*,#520,.F.);
#776=ORIENTED_EDGE('',*,*,#549,.F.);
#777=ORIENTED_EDGE('',*,*,#440,.F.);
#778=ORIENTED_EDGE('',*,*,#550,.F.);
#779=ORIENTED_EDGE('',*,*,#518,.F.);
#780=ORIENTED_EDGE('',*,*,#551,.F.);
#781=PLANE('',#867);
#782=PLANE('',#871);
#783=PLANE('',#875);
#784=PLANE('',#879);
#785=PLANE('',#907);
#786=PLANE('',#908);
#787=PLANE('',#910);
#788=PLANE('',#912);
#789=PLANE('',#914);
#790=PLANE('',#916);
#791=PLANE('',#918);
#792=PLANE('',#920);
#793=PLANE('',#925);
#794=PLANE('',#929);
#795=PLANE('',#933);
#796=PLANE('',#952);
#797=PLANE('',#955);
#798=PLANE('',#956);
#799=PLANE('',#957);
#800=PLANE('',#958);
#801=PLANE('',#959);
#802=PLANE('',#960);
#803=PLANE('',#961);
#804=PLANE('',#962);
#805=ADVANCED_FACE('',(#111),#781,.F.);
#806=ADVANCED_FACE('',(#112),#87,.T.);
#807=ADVANCED_FACE('',(#113),#782,.F.);
#808=ADVANCED_FACE('',(#114),#88,.T.);
#809=ADVANCED_FACE('',(#115),#783,.T.);
#810=ADVANCED_FACE('',(#116),#89,.T.);
#811=ADVANCED_FACE('',(#117),#784,.T.);
#812=ADVANCED_FACE('',(#118),#90,.F.);
#813=ADVANCED_FACE('',(#119),#91,.F.);
#814=ADVANCED_FACE('',(#120),#92,.F.);
#815=ADVANCED_FACE('',(#121),#93,.F.);
#816=ADVANCED_FACE('',(#122),#94,.F.);
#817=ADVANCED_FACE('',(#123),#95,.F.);
#818=ADVANCED_FACE('',(#124),#96,.F.);
#819=ADVANCED_FACE('',(#125),#97,.F.);
#820=ADVANCED_FACE('',(#126),#98,.T.);
#821=ADVANCED_FACE('',(#127,#15,#16,#17,#18,#19,#20,#21,#22),#785,.F.);
#822=ADVANCED_FACE('',(#128,#23),#786,.F.);
#823=ADVANCED_FACE('',(#129,#24),#787,.F.);
#824=ADVANCED_FACE('',(#130,#25),#788,.F.);
#825=ADVANCED_FACE('',(#131,#26),#789,.F.);
#826=ADVANCED_FACE('',(#132,#27),#790,.F.);
#827=ADVANCED_FACE('',(#133,#28),#791,.F.);
#828=ADVANCED_FACE('',(#134,#29),#792,.F.);
#829=ADVANCED_FACE('',(#135),#99,.F.);
#830=ADVANCED_FACE('',(#136),#793,.T.);
#831=ADVANCED_FACE('',(#137),#100,.F.);
#832=ADVANCED_FACE('',(#138),#794,.T.);
#833=ADVANCED_FACE('',(#139),#101,.F.);
#834=ADVANCED_FACE('',(#140),#795,.F.);
#835=ADVANCED_FACE('',(#141),#102,.F.);
#836=ADVANCED_FACE('',(#142),#103,.F.);
#837=ADVANCED_FACE('',(#143),#104,.F.);
#838=ADVANCED_FACE('',(#144),#105,.F.);
#839=ADVANCED_FACE('',(#145),#106,.F.);
#840=ADVANCED_FACE('',(#146),#107,.F.);
#841=ADVANCED_FACE('',(#147),#108,.F.);
#842=ADVANCED_FACE('',(#148),#109,.F.);
#843=ADVANCED_FACE('',(#149),#796,.F.);
#844=ADVANCED_FACE('',(#150),#110,.F.);
#845=ADVANCED_FACE('',(#151,#30,#31,#32,#33,#34,#35,#36,#37),#797,.T.);
#846=ADVANCED_FACE('',(#152,#38),#798,.F.);
#847=ADVANCED_FACE('',(#153),#799,.T.);
#848=ADVANCED_FACE('',(#154),#800,.T.);
#849=ADVANCED_FACE('',(#155),#801,.F.);
#850=ADVANCED_FACE('',(#156),#802,.T.);
#851=ADVANCED_FACE('',(#157),#803,.T.);
#852=ADVANCED_FACE('',(#158),#804,.F.);
#853=CLOSED_SHELL('',(#805,#806,#807,#808,#809,#810,#811,#812,#813,#814,
#815,#816,#817,#818,#819,#820,#821,#822,#823,#824,#825,#826,#827,#828,#829,
#830,#831,#832,#833,#834,#835,#836,#837,#838,#839,#840,#841,#842,#843,#844,
#845,#846,#847,#848,#849,#850,#851,#852));
#854=DERIVED_UNIT_ELEMENT(#856,1.);
#855=DERIVED_UNIT_ELEMENT(#1466,-3.);
#856=(
MASS_UNIT()
NAMED_UNIT(*)
SI_UNIT(.KILO.,.GRAM.)
);
#857=DERIVED_UNIT((#854,#855));
#858=MEASURE_REPRESENTATION_ITEM('density measure',
POSITIVE_RATIO_MEASURE(7850.),#857);
#859=PROPERTY_DEFINITION_REPRESENTATION(#864,#861);
#860=PROPERTY_DEFINITION_REPRESENTATION(#865,#862);
#861=REPRESENTATION('material name',(#863),#1464);
#862=REPRESENTATION('density',(#858),#1464);
#863=DESCRIPTIVE_REPRESENTATION_ITEM('Steel','Steel');
#864=PROPERTY_DEFINITION('material property','material name',#1473);
#865=PROPERTY_DEFINITION('material property','density of part',#1473);
#866=AXIS2_PLACEMENT_3D('',#1223,#963,#964);
#867=AXIS2_PLACEMENT_3D('',#1224,#965,#966);
#868=AXIS2_PLACEMENT_3D('',#1245,#977,#978);
#869=AXIS2_PLACEMENT_3D('',#1247,#979,#980);
#870=AXIS2_PLACEMENT_3D('',#1250,#982,#983);
#871=AXIS2_PLACEMENT_3D('',#1251,#984,#985);
#872=AXIS2_PLACEMENT_3D('',#1257,#989,#990);
#873=AXIS2_PLACEMENT_3D('',#1259,#991,#992);
#874=AXIS2_PLACEMENT_3D('',#1262,#994,#995);
#875=AXIS2_PLACEMENT_3D('',#1263,#996,#997);
#876=AXIS2_PLACEMENT_3D('',#1269,#1001,#1002);
#877=AXIS2_PLACEMENT_3D('',#1271,#1003,#1004);
#878=AXIS2_PLACEMENT_3D('',#1274,#1006,#1007);
#879=AXIS2_PLACEMENT_3D('',#1275,#1008,#1009);
#880=AXIS2_PLACEMENT_3D('',#1281,#1013,#1014);
#881=AXIS2_PLACEMENT_3D('',#1283,#1015,#1016);
#882=AXIS2_PLACEMENT_3D('',#1286,#1018,#1019);
#883=AXIS2_PLACEMENT_3D('',#1287,#1020,#1021);
#884=AXIS2_PLACEMENT_3D('',#1289,#1022,#1023);
#885=AXIS2_PLACEMENT_3D('',#1292,#1025,#1026);
#886=AXIS2_PLACEMENT_3D('',#1293,#1027,#1028);
#887=AXIS2_PLACEMENT_3D('',#1295,#1029,#1030);
#888=AXIS2_PLACEMENT_3D('',#1298,#1032,#1033);
#889=AXIS2_PLACEMENT_3D('',#1299,#1034,#1035);
#890=AXIS2_PLACEMENT_3D('',#1301,#1036,#1037);
#891=AXIS2_PLACEMENT_3D('',#1304,#1039,#1040);
#892=AXIS2_PLACEMENT_3D('',#1305,#1041,#1042);
#893=AXIS2_PLACEMENT_3D('',#1307,#1043,#1044);
#894=AXIS2_PLACEMENT_3D('',#1310,#1046,#1047);
#895=AXIS2_PLACEMENT_3D('',#1311,#1048,#1049);
#896=AXIS2_PLACEMENT_3D('',#1313,#1050,#1051);
#897=AXIS2_PLACEMENT_3D('',#1316,#1053,#1054);
#898=AXIS2_PLACEMENT_3D('',#1317,#1055,#1056);
#899=AXIS2_PLACEMENT_3D('',#1319,#1057,#1058);
#900=AXIS2_PLACEMENT_3D('',#1322,#1060,#1061);
#901=AXIS2_PLACEMENT_3D('',#1323,#1062,#1063);
#902=AXIS2_PLACEMENT_3D('',#1325,#1064,#1065);
#903=AXIS2_PLACEMENT_3D('',#1328,#1067,#1068);
#904=AXIS2_PLACEMENT_3D('',#1329,#1069,#1070);
#905=AXIS2_PLACEMENT_3D('',#1330,#1071,#1072);
#906=AXIS2_PLACEMENT_3D('',#1331,#1073,#1074);
#907=AXIS2_PLACEMENT_3D('',#1332,#1075,#1076);
#908=AXIS2_PLACEMENT_3D('',#1333,#1077,#1078);
#909=AXIS2_PLACEMENT_3D('',#1335,#1079,#1080);
#910=AXIS2_PLACEMENT_3D('',#1336,#1081,#1082);
#911=AXIS2_PLACEMENT_3D('',#1338,#1083,#1084);
#912=AXIS2_PLACEMENT_3D('',#1339,#1085,#1086);
#913=AXIS2_PLACEMENT_3D('',#1341,#1087,#1088);
#914=AXIS2_PLACEMENT_3D('',#1342,#1089,#1090);
#915=AXIS2_PLACEMENT_3D('',#1344,#1091,#1092);
#916=AXIS2_PLACEMENT_3D('',#1345,#1093,#1094);
#917=AXIS2_PLACEMENT_3D('',#1347,#1095,#1096);
#918=AXIS2_PLACEMENT_3D('',#1348,#1097,#1098);
#919=AXIS2_PLACEMENT_3D('',#1350,#1099,#1100);
#920=AXIS2_PLACEMENT_3D('',#1351,#1101,#1102);
#921=AXIS2_PLACEMENT_3D('',#1353,#1103,#1104);
#922=AXIS2_PLACEMENT_3D('',#1354,#1105,#1106);
#923=AXIS2_PLACEMENT_3D('',#1357,#1107,#1108);
#924=AXIS2_PLACEMENT_3D('',#1361,#1110,#1111);
#925=AXIS2_PLACEMENT_3D('',#1363,#1113,#1114);
#926=AXIS2_PLACEMENT_3D('',#1369,#1118,#1119);
#927=AXIS2_PLACEMENT_3D('',#1371,#1120,#1121);
#928=AXIS2_PLACEMENT_3D('',#1374,#1123,#1124);
#929=AXIS2_PLACEMENT_3D('',#1375,#1125,#1126);
#930=AXIS2_PLACEMENT_3D('',#1381,#1130,#1131);
#931=AXIS2_PLACEMENT_3D('',#1383,#1132,#1133);
#932=AXIS2_PLACEMENT_3D('',#1386,#1135,#1136);
#933=AXIS2_PLACEMENT_3D('',#1387,#1137,#1138);
#934=AXIS2_PLACEMENT_3D('',#1405,#1148,#1149);
#935=AXIS2_PLACEMENT_3D('',#1407,#1150,#1151);
#936=AXIS2_PLACEMENT_3D('',#1410,#1153,#1154);
#937=AXIS2_PLACEMENT_3D('',#1411,#1155,#1156);
#938=AXIS2_PLACEMENT_3D('',#1413,#1157,#1158);
#939=AXIS2_PLACEMENT_3D('',#1415,#1160,#1161);
#940=AXIS2_PLACEMENT_3D('',#1417,#1162,#1163);
#941=AXIS2_PLACEMENT_3D('',#1419,#1165,#1166);
#942=AXIS2_PLACEMENT_3D('',#1421,#1167,#1168);
#943=AXIS2_PLACEMENT_3D('',#1423,#1170,#1171);
#944=AXIS2_PLACEMENT_3D('',#1425,#1172,#1173);
#945=AXIS2_PLACEMENT_3D('',#1427,#1175,#1176);
#946=AXIS2_PLACEMENT_3D('',#1429,#1177,#1178);
#947=AXIS2_PLACEMENT_3D('',#1431,#1180,#1181);
#948=AXIS2_PLACEMENT_3D('',#1433,#1182,#1183);
#949=AXIS2_PLACEMENT_3D('',#1435,#1185,#1186);
#950=AXIS2_PLACEMENT_3D('',#1437,#1187,#1188);
#951=AXIS2_PLACEMENT_3D('',#1440,#1190,#1191);
#952=AXIS2_PLACEMENT_3D('',#1441,#1192,#1193);
#953=AXIS2_PLACEMENT_3D('',#1444,#1196,#1197);
#954=AXIS2_PLACEMENT_3D('',#1446,#1198,#1199);
#955=AXIS2_PLACEMENT_3D('',#1448,#1201,#1202);
#956=AXIS2_PLACEMENT_3D('',#1451,#1205,#1206);
#957=AXIS2_PLACEMENT_3D('',#1452,#1207,#1208);
#958=AXIS2_PLACEMENT_3D('',#1453,#1209,#1210);
#959=AXIS2_PLACEMENT_3D('',#1456,#1213,#1214);
#960=AXIS2_PLACEMENT_3D('',#1458,#1216,#1217);
#961=AXIS2_PLACEMENT_3D('',#1460,#1219,#1220);
#962=AXIS2_PLACEMENT_3D('',#1461,#1221,#1222);
#963=DIRECTION('axis',(0.,0.,1.));
#964=DIRECTION('refdir',(1.,0.,0.));
#965=DIRECTION('center_axis',(8.43392149732926E-17,-1.,0.));
#966=DIRECTION('ref_axis',(1.,8.43392149732926E-17,0.));
#967=DIRECTION('',(-1.,-8.43392149732926E-17,-1.48993971052304E-16));
#968=DIRECTION('',(0.707106781186548,5.96368308275652E-17,0.707106781186547));
#969=DIRECTION('',(0.,0.,1.));
#970=DIRECTION('',(-1.,-8.43392149732926E-17,0.));
#971=DIRECTION('',(0.,0.,-1.));
#972=DIRECTION('',(-1.,-8.43392149732926E-17,0.));
#973=DIRECTION('',(0.,0.,-1.));
#974=DIRECTION('',(-1.,-8.43392149732926E-17,0.));
#975=DIRECTION('',(0.,0.,1.));
#976=DIRECTION('',(-0.707106781186548,-5.96368308275652E-17,0.707106781186547));
#977=DIRECTION('center_axis',(0.,0.,-1.));
#978=DIRECTION('ref_axis',(-1.,0.,0.));
#979=DIRECTION('center_axis',(0.,0.,1.));
#980=DIRECTION('ref_axis',(1.,0.,0.));
#981=DIRECTION('',(0.,0.,-1.));
#982=DIRECTION('center_axis',(0.,0.,1.));
#983=DIRECTION('ref_axis',(1.,0.,0.));
#984=DIRECTION('center_axis',(1.,4.25307625124562E-16,0.));
#985=DIRECTION('ref_axis',(-4.25307625124562E-16,1.,0.));
#986=DIRECTION('',(4.25307625124562E-16,-1.,0.));
#987=DIRECTION('',(0.,0.,-1.));
#988=DIRECTION('',(4.25307625124562E-16,-1.,0.));
#989=DIRECTION('center_axis',(0.,0.,-1.));
#990=DIRECTION('ref_axis',(-1.,0.,0.));
#991=DIRECTION('center_axis',(0.,0.,1.));
#992=DIRECTION('ref_axis',(1.,0.,0.));
#993=DIRECTION('',(0.,0.,-1.));
#994=DIRECTION('center_axis',(0.,0.,1.));
#995=DIRECTION('ref_axis',(1.,0.,0.));
#996=DIRECTION('center_axis',(8.43392149732926E-17,-1.,0.));
#997=DIRECTION('ref_axis',(1.,8.43392149732926E-17,0.));
#998=DIRECTION('',(-1.,-8.43392149732926E-17,0.));
#999=DIRECTION('',(0.,0.,-1.));
#1000=DIRECTION('',(-1.,-8.43392149732926E-17,0.));
#1001=DIRECTION('center_axis',(0.,0.,-1.));
#1002=DIRECTION('ref_axis',(-1.,0.,0.));
#1003=DIRECTION('center_axis',(0.,0.,1.));
#1004=DIRECTION('ref_axis',(1.,0.,0.));
#1005=DIRECTION('',(0.,0.,-1.));
#1006=DIRECTION('center_axis',(0.,0.,1.));
#1007=DIRECTION('ref_axis',(1.,0.,0.));
#1008=DIRECTION('center_axis',(1.,4.25307625124562E-16,0.));
#1009=DIRECTION('ref_axis',(-4.25307625124562E-16,1.,0.));
#1010=DIRECTION('',(4.25307625124563E-16,-1.,0.));
#1011=DIRECTION('',(0.,0.,-1.));
#1012=DIRECTION('',(4.25307625124563E-16,-1.,0.));
#1013=DIRECTION('center_axis',(0.,0.,-1.));
#1014=DIRECTION('ref_axis',(-1.,0.,0.));
#1015=DIRECTION('center_axis',(0.,0.,1.));
#1016=DIRECTION('ref_axis',(1.,0.,0.));
#1017=DIRECTION('',(0.,0.,-1.));
#1018=DIRECTION('center_axis',(0.,0.,1.));
#1019=DIRECTION('ref_axis',(1.,0.,0.));
#1020=DIRECTION('center_axis',(0.,0.,-1.));
#1021=DIRECTION('ref_axis',(-1.,0.,0.));
#1022=DIRECTION('center_axis',(0.,0.,1.));
#1023=DIRECTION('ref_axis',(1.,0.,0.));
#1024=DIRECTION('',(0.,0.,-1.));
#1025=DIRECTION('center_axis',(0.,0.,1.));
#1026=DIRECTION('ref_axis',(1.,0.,0.));
#1027=DIRECTION('center_axis',(0.,0.,-1.));
#1028=DIRECTION('ref_axis',(-1.,0.,0.));
#1029=DIRECTION('center_axis',(0.,0.,1.));
#1030=DIRECTION('ref_axis',(1.,0.,0.));
#1031=DIRECTION('',(0.,0.,-1.));
#1032=DIRECTION('center_axis',(0.,0.,1.));
#1033=DIRECTION('ref_axis',(1.,0.,0.));
#1034=DIRECTION('center_axis',(0.,0.,-1.));
#1035=DIRECTION('ref_axis',(-1.,0.,0.));
#1036=DIRECTION('center_axis',(0.,0.,1.));
#1037=DIRECTION('ref_axis',(1.,0.,0.));
#1038=DIRECTION('',(0.,0.,-1.));
#1039=DIRECTION('center_axis',(0.,0.,1.));
#1040=DIRECTION('ref_axis',(1.,0.,0.));
#1041=DIRECTION('center_axis',(0.,0.,-1.));
#1042=DIRECTION('ref_axis',(-1.,0.,0.));
#1043=DIRECTION('center_axis',(0.,0.,1.));
#1044=DIRECTION('ref_axis',(1.,0.,0.));
#1045=DIRECTION('',(0.,0.,-1.));
#1046=DIRECTION('center_axis',(0.,0.,1.));
#1047=DIRECTION('ref_axis',(1.,0.,0.));
#1048=DIRECTION('center_axis',(0.,0.,-1.));
#1049=DIRECTION('ref_axis',(-1.,0.,0.));
#1050=DIRECTION('center_axis',(0.,0.,1.));
#1051=DIRECTION('ref_axis',(1.,0.,0.));
#1052=DIRECTION('',(0.,0.,-1.));
#1053=DIRECTION('center_axis',(0.,0.,1.));
#1054=DIRECTION('ref_axis',(1.,0.,0.));
#1055=DIRECTION('center_axis',(0.,0.,-1.));
#1056=DIRECTION('ref_axis',(-1.,0.,0.));
#1057=DIRECTION('center_axis',(0.,0.,1.));
#1058=DIRECTION('ref_axis',(1.,0.,0.));
#1059=DIRECTION('',(0.,0.,-1.));
#1060=DIRECTION('center_axis',(0.,0.,1.));
#1061=DIRECTION('ref_axis',(1.,0.,0.));
#1062=DIRECTION('center_axis',(0.,0.,-1.));
#1063=DIRECTION('ref_axis',(-1.,0.,0.));
#1064=DIRECTION('center_axis',(0.,0.,1.));
#1065=DIRECTION('ref_axis',(1.,0.,0.));
#1066=DIRECTION('',(0.,0.,-1.));
#1067=DIRECTION('center_axis',(0.,0.,1.));
#1068=DIRECTION('ref_axis',(1.,0.,0.));
#1069=DIRECTION('center_axis',(0.,0.,-1.));
#1070=DIRECTION('ref_axis',(-1.,0.,0.));
#1071=DIRECTION('center_axis',(0.,0.,1.));
#1072=DIRECTION('ref_axis',(1.,0.,0.));
#1073=DIRECTION('center_axis',(0.,0.,1.));
#1074=DIRECTION('ref_axis',(1.,0.,0.));
#1075=DIRECTION('center_axis',(0.,0.,1.));
#1076=DIRECTION('ref_axis',(1.,0.,0.));
#1077=DIRECTION('center_axis',(0.,0.,1.));
#1078=DIRECTION('ref_axis',(1.,0.,0.));
#1079=DIRECTION('center_axis',(0.,0.,1.));
#1080=DIRECTION('ref_axis',(1.,0.,0.));
#1081=DIRECTION('center_axis',(0.,0.,1.));
#1082=DIRECTION('ref_axis',(1.,0.,0.));
#1083=DIRECTION('center_axis',(0.,0.,1.));
#1084=DIRECTION('ref_axis',(1.,0.,0.));
#1085=DIRECTION('center_axis',(0.,0.,1.));
#1086=DIRECTION('ref_axis',(1.,0.,0.));
#1087=DIRECTION('center_axis',(0.,0.,1.));
#1088=DIRECTION('ref_axis',(1.,0.,0.));
#1089=DIRECTION('center_axis',(0.,0.,1.));
#1090=DIRECTION('ref_axis',(1.,0.,0.));
#1091=DIRECTION('center_axis',(0.,0.,1.));
#1092=DIRECTION('ref_axis',(1.,0.,0.));
#1093=DIRECTION('center_axis',(0.,0.,1.));
#1094=DIRECTION('ref_axis',(1.,0.,0.));
#1095=DIRECTION('center_axis',(0.,0.,1.));
#1096=DIRECTION('ref_axis',(1.,0.,0.));
#1097=DIRECTION('center_axis',(0.,0.,1.));
#1098=DIRECTION('ref_axis',(1.,0.,0.));
#1099=DIRECTION('center_axis',(0.,0.,1.));
#1100=DIRECTION('ref_axis',(1.,0.,0.));
#1101=DIRECTION('center_axis',(0.,0.,1.));
#1102=DIRECTION('ref_axis',(1.,0.,0.));
#1103=DIRECTION('center_axis',(0.,0.,1.));
#1104=DIRECTION('ref_axis',(1.,0.,0.));
#1105=DIRECTION('center_axis',(0.,0.,-1.));
#1106=DIRECTION('ref_axis',(-1.,0.,0.));
#1107=DIRECTION('center_axis',(0.,0.,1.));
#1108=DIRECTION('ref_axis',(1.,0.,0.));
#1109=DIRECTION('',(0.,0.,-1.));
#1110=DIRECTION('center_axis',(0.,0.,1.));
#1111=DIRECTION('ref_axis',(1.,0.,0.));
#1112=DIRECTION('',(0.,0.,-1.));
#1113=DIRECTION('center_axis',(0.,1.,0.));
#1114=DIRECTION('ref_axis',(0.,0.,1.));
#1115=DIRECTION('',(1.,0.,0.));
#1116=DIRECTION('',(0.,0.,-1.));
#1117=DIRECTION('',(1.,0.,0.));
#1118=DIRECTION('center_axis',(0.,0.,-1.));
#1119=DIRECTION('ref_axis',(-1.,0.,0.));
#1120=DIRECTION('center_axis',(0.,0.,1.));
#1121=DIRECTION('ref_axis',(1.,0.,0.));
#1122=DIRECTION('',(0.,0.,-1.));
#1123=DIRECTION('center_axis',(0.,0.,1.));
#1124=DIRECTION('ref_axis',(1.,0.,0.));
#1125=DIRECTION('center_axis',(1.,0.,0.));
#1126=DIRECTION('ref_axis',(0.,0.,-1.));
#1127=DIRECTION('',(0.,-1.,0.));
#1128=DIRECTION('',(0.,0.,-1.));
#1129=DIRECTION('',(0.,-1.,0.));
#1130=DIRECTION('center_axis',(0.,0.,-1.));
#1131=DIRECTION('ref_axis',(-1.,0.,0.));
#1132=DIRECTION('center_axis',(0.,0.,1.));
#1133=DIRECTION('ref_axis',(1.,0.,0.));
#1134=DIRECTION('',(0.,0.,-1.));
#1135=DIRECTION('center_axis',(0.,0.,1.));
#1136=DIRECTION('ref_axis',(1.,0.,0.));
#1137=DIRECTION('center_axis',(0.,1.,0.));
#1138=DIRECTION('ref_axis',(0.,0.,1.));
#1139=DIRECTION('',(1.,0.,0.));
#1140=DIRECTION('',(0.,0.,-1.));
#1141=DIRECTION('',(-0.707106781186548,0.,-0.707106781186547));
#1142=DIRECTION('',(1.,0.,1.48993971052304E-16));
#1143=DIRECTION('',(0.707106781186548,0.,-0.707106781186547));
#1144=DIRECTION('',(0.,0.,-1.));
#1145=DIRECTION('',(1.,0.,0.));
#1146=DIRECTION('',(1.,0.,0.));
#1147=DIRECTION('',(0.,0.,-1.));
#1148=DIRECTION('center_axis',(0.,0.,-1.));
#1149=DIRECTION('ref_axis',(-1.,0.,0.));
#1150=DIRECTION('center_axis',(0.,0.,1.));
#1151=DIRECTION('ref_axis',(1.,0.,0.));
#1152=DIRECTION('',(0.,0.,-1.));
#1153=DIRECTION('center_axis',(0.,0.,1.));
#1154=DIRECTION('ref_axis',(1.,0.,0.));
#1155=DIRECTION('center_axis',(0.,0.,-1.));
#1156=DIRECTION('ref_axis',(-1.,0.,0.));
#1157=DIRECTION('center_axis',(0.,0.,1.));
#1158=DIRECTION('ref_axis',(1.,0.,0.));
#1159=DIRECTION('',(0.,0.,-1.));
#1160=DIRECTION('center_axis',(0.,0.,-1.));
#1161=DIRECTION('ref_axis',(-1.,0.,0.));
#1162=DIRECTION('center_axis',(0.,0.,1.));
#1163=DIRECTION('ref_axis',(1.,0.,0.));
#1164=DIRECTION('',(0.,0.,-1.));
#1165=DIRECTION('center_axis',(0.,0.,-1.));
#1166=DIRECTION('ref_axis',(-1.,0.,0.));
#1167=DIRECTION('center_axis',(0.,0.,1.));
#1168=DIRECTION('ref_axis',(1.,0.,0.));
#1169=DIRECTION('',(0.,0.,-1.));
#1170=DIRECTION('center_axis',(0.,0.,-1.));
#1171=DIRECTION('ref_axis',(-1.,0.,0.));
#1172=DIRECTION('center_axis',(0.,0.,1.));
#1173=DIRECTION('ref_axis',(1.,0.,0.));
#1174=DIRECTION('',(0.,0.,-1.));
#1175=DIRECTION('center_axis',(0.,0.,-1.));
#1176=DIRECTION('ref_axis',(-1.,0.,0.));
#1177=DIRECTION('center_axis',(0.,0.,1.));
#1178=DIRECTION('ref_axis',(1.,0.,0.));
#1179=DIRECTION('',(0.,0.,-1.));
#1180=DIRECTION('center_axis',(0.,0.,-1.));
#1181=DIRECTION('ref_axis',(-1.,0.,0.));
#1182=DIRECTION('center_axis',(0.,0.,1.));
#1183=DIRECTION('ref_axis',(1.,0.,0.));
#1184=DIRECTION('',(0.,0.,-1.));
#1185=DIRECTION('center_axis',(0.,0.,-1.));
#1186=DIRECTION('ref_axis',(-1.,0.,0.));
#1187=DIRECTION('center_axis',(0.,0.,1.));
#1188=DIRECTION('ref_axis',(1.,0.,0.));
#1189=DIRECTION('',(0.,0.,-1.));
#1190=DIRECTION('center_axis',(0.,0.,1.));
#1191=DIRECTION('ref_axis',(1.,0.,0.));
#1192=DIRECTION('center_axis',(1.,0.,0.));
#1193=DIRECTION('ref_axis',(0.,0.,-1.));
#1194=DIRECTION('',(0.,-1.,0.));
#1195=DIRECTION('',(0.,-1.,0.));
#1196=DIRECTION('center_axis',(0.,0.,-1.));
#1197=DIRECTION('ref_axis',(-1.,0.,0.));
#1198=DIRECTION('center_axis',(0.,0.,1.));
#1199=DIRECTION('ref_axis',(1.,0.,0.));
#1200=DIRECTION('',(0.,0.,-1.));
#1201=DIRECTION('center_axis',(0.,0.,1.));
#1202=DIRECTION('ref_axis',(1.,0.,0.));
#1203=DIRECTION('',(0.,1.,0.));
#1204=DIRECTION('',(0.,1.,0.));
#1205=DIRECTION('center_axis',(0.,0.,1.));
#1206=DIRECTION('ref_axis',(1.,0.,0.));
#1207=DIRECTION('center_axis',(0.,0.,1.));
#1208=DIRECTION('ref_axis',(1.,0.,0.));
#1209=DIRECTION('center_axis',(-1.48993971052304E-16,0.,1.));
#1210=DIRECTION('ref_axis',(1.,0.,1.48993971052304E-16));
#1211=DIRECTION('',(0.,-1.,0.));
#1212=DIRECTION('',(0.,1.,0.));
#1213=DIRECTION('center_axis',(1.,0.,0.));
#1214=DIRECTION('ref_axis',(0.,0.,-1.));
#1215=DIRECTION('',(0.,-1.,0.));
#1216=DIRECTION('center_axis',(1.,0.,0.));
#1217=DIRECTION('ref_axis',(0.,0.,-1.));
#1218=DIRECTION('',(0.,1.,0.));
#1219=DIRECTION('center_axis',(0.707106781186547,0.,0.707106781186548));
#1220=DIRECTION('ref_axis',(0.,1.,0.));
#1221=DIRECTION('center_axis',(0.707106781186547,0.,-0.707106781186548));
#1222=DIRECTION('ref_axis',(0.,-1.,0.));
#1223=CARTESIAN_POINT('',(0.,0.,0.));
#1224=CARTESIAN_POINT('Origin',(0.00395034815964973,0.070094284583627,0.0015));
#1225=CARTESIAN_POINT('',(0.114094957530498,0.070094284583627,0.00431985780596745));
#1226=CARTESIAN_POINT('',(0.105952046990395,0.070094284583627,0.00431985780596745));
#1227=CARTESIAN_POINT('',(0.00395034815964973,0.070094284583627,0.00431985780596744));
#1228=CARTESIAN_POINT('',(0.115844957530498,0.070094284583627,0.00606985780596745));
#1229=CARTESIAN_POINT('',(0.0576127239420903,0.070094284583627,-0.0521623757824407));
#1230=CARTESIAN_POINT('',(0.115844957530498,0.070094284583627,0.0093));
#1231=CARTESIAN_POINT('',(0.115844957530498,0.070094284583627,0.0015));
#1232=CARTESIAN_POINT('',(0.168497620886922,0.070094284583627,0.0093));
#1233=CARTESIAN_POINT('',(0.00395034815964973,0.070094284583627,0.0093));
#1234=CARTESIAN_POINT('',(0.168497620886922,0.070094284583627,0.));
#1235=CARTESIAN_POINT('',(0.168497620886922,0.070094284583627,0.0015));
#1236=CARTESIAN_POINT('',(-0.160596924567623,0.070094284583627,0.));
#1237=CARTESIAN_POINT('',(0.00395034815964973,0.070094284583627,0.));
#1238=CARTESIAN_POINT('',(-0.160596924567623,0.070094284583627,0.0093));
#1239=CARTESIAN_POINT('',(-0.160596924567623,0.070094284583627,0.0015));
#1240=CARTESIAN_POINT('',(0.104202046990395,0.070094284583627,0.0093));
#1241=CARTESIAN_POINT('',(0.00395034815964973,0.070094284583627,0.0093));
#1242=CARTESIAN_POINT('',(0.104202046990395,0.070094284583627,0.00606985780596745));
#1243=CARTESIAN_POINT('',(0.104202046990395,0.070094284583627,0.0015));
#1244=CARTESIAN_POINT('',(0.0563611264780058,0.070094284583627,0.0539107783183562));
#1245=CARTESIAN_POINT('Origin',(-0.160596924567623,0.067094284583627,0.0015));
#1246=CARTESIAN_POINT('',(-0.163596924567623,0.067094284583627,0.));
#1247=CARTESIAN_POINT('Origin',(-0.160596924567623,0.067094284583627,0.));
#1248=CARTESIAN_POINT('',(-0.163596924567623,0.067094284583627,0.0093));
#1249=CARTESIAN_POINT('',(-0.163596924567623,0.067094284583627,0.0015));
#1250=CARTESIAN_POINT('Origin',(-0.160596924567623,0.067094284583627,0.0093));
#1251=CARTESIAN_POINT('Origin',(-0.163596924567623,0.00183428458362702,
0.0015));
#1252=CARTESIAN_POINT('',(-0.163596924567623,-0.063425715416373,0.));
#1253=CARTESIAN_POINT('',(-0.163596924567623,0.00183428458362702,0.));
#1254=CARTESIAN_POINT('',(-0.163596924567623,-0.063425715416373,0.0093));
#1255=CARTESIAN_POINT('',(-0.163596924567623,-0.063425715416373,0.0015));
#1256=CARTESIAN_POINT('',(-0.163596924567623,0.00183428458362702,0.0093));
#1257=CARTESIAN_POINT('Origin',(-0.160596924567623,-0.0634257154163729,
0.0015));
#1258=CARTESIAN_POINT('',(-0.160596924567623,-0.066425715416373,0.));
#1259=CARTESIAN_POINT('Origin',(-0.160596924567623,-0.0634257154163729,
0.));
#1260=CARTESIAN_POINT('',(-0.160596924567623,-0.066425715416373,0.0093));
#1261=CARTESIAN_POINT('',(-0.160596924567623,-0.066425715416373,0.0015));
#1262=CARTESIAN_POINT('Origin',(-0.160596924567623,-0.0634257154163729,
0.0093));
#1263=CARTESIAN_POINT('Origin',(0.00395034815964978,-0.066425715416373,
0.0015));
#1264=CARTESIAN_POINT('',(0.168497620886922,-0.066425715416373,0.));
#1265=CARTESIAN_POINT('',(0.00395034815964978,-0.066425715416373,0.));
#1266=CARTESIAN_POINT('',(0.168497620886922,-0.066425715416373,0.0093));
#1267=CARTESIAN_POINT('',(0.168497620886922,-0.066425715416373,0.0015));
#1268=CARTESIAN_POINT('',(0.00395034815964978,-0.066425715416373,0.0093));
#1269=CARTESIAN_POINT('Origin',(0.168497620886922,-0.0634257154163729,0.0015));
#1270=CARTESIAN_POINT('',(0.171497620886922,-0.0634257154163729,0.));
#1271=CARTESIAN_POINT('Origin',(0.168497620886922,-0.0634257154163729,0.));
#1272=CARTESIAN_POINT('',(0.171497620886922,-0.0634257154163729,0.0093));
#1273=CARTESIAN_POINT('',(0.171497620886922,-0.0634257154163729,0.0015));
#1274=CARTESIAN_POINT('Origin',(0.168497620886922,-0.0634257154163729,0.0093));
#1275=CARTESIAN_POINT('Origin',(0.171497620886922,0.00183428458362706,0.0015));
#1276=CARTESIAN_POINT('',(0.171497620886922,0.067094284583627,0.));
#1277=CARTESIAN_POINT('',(0.171497620886922,0.00183428458362706,0.));
#1278=CARTESIAN_POINT('',(0.171497620886922,0.067094284583627,0.0093));
#1279=CARTESIAN_POINT('',(0.171497620886922,0.067094284583627,0.0015));
#1280=CARTESIAN_POINT('',(0.171497620886922,0.00183428458362706,0.0093));
#1281=CARTESIAN_POINT('Origin',(-0.160485359627027,0.0640240656370347,0.0015));
#1282=CARTESIAN_POINT('',(-0.158435359627027,0.0640240656370347,0.0015));
#1283=CARTESIAN_POINT('Origin',(-0.160485359627027,0.0640240656370347,0.0015));
#1284=CARTESIAN_POINT('',(-0.158435359627027,0.0640240656370347,0.));
#1285=CARTESIAN_POINT('',(-0.158435359627027,0.0640240656370347,0.0015));
#1286=CARTESIAN_POINT('Origin',(-0.160485359627027,0.0640240656370347,0.));
#1287=CARTESIAN_POINT('Origin',(0.168259486556053,0.0637573748826981,0.0015));
#1288=CARTESIAN_POINT('',(0.170309486556053,0.0637573748826981,0.0015));
#1289=CARTESIAN_POINT('Origin',(0.168259486556053,0.0637573748826981,0.0015));
#1290=CARTESIAN_POINT('',(0.170309486556053,0.0637573748826981,0.));
#1291=CARTESIAN_POINT('',(0.170309486556053,0.0637573748826981,0.0015));
#1292=CARTESIAN_POINT('Origin',(0.168259486556053,0.0637573748826981,0.));
#1293=CARTESIAN_POINT('Origin',(0.168435528874397,-0.0603583715856075,0.0015));
#1294=CARTESIAN_POINT('',(0.170485528874397,-0.0603583715856075,0.0015));
#1295=CARTESIAN_POINT('Origin',(0.168435528874397,-0.0603583715856075,0.0015));
#1296=CARTESIAN_POINT('',(0.170485528874397,-0.0603583715856075,0.));
#1297=CARTESIAN_POINT('',(0.170485528874397,-0.0603583715856075,0.0015));
#1298=CARTESIAN_POINT('Origin',(0.168435528874397,-0.0603583715856075,0.));
#1299=CARTESIAN_POINT('Origin',(-0.160458579659462,-0.0603742487728596,
0.0015));
#1300=CARTESIAN_POINT('',(-0.158408579659462,-0.0603742487728596,0.0015));
#1301=CARTESIAN_POINT('Origin',(-0.160458579659462,-0.0603742487728596,
0.0015));
#1302=CARTESIAN_POINT('',(-0.158408579659462,-0.0603742487728596,0.));
#1303=CARTESIAN_POINT('',(-0.158408579659462,-0.0603742487728596,0.0015));
#1304=CARTESIAN_POINT('Origin',(-0.160458579659462,-0.0603742487728596,
0.));
#1305=CARTESIAN_POINT('Origin',(-0.00303557024302206,-0.062516417091788,
0.0015));
#1306=CARTESIAN_POINT('',(-0.00098557024302206,-0.062516417091788,0.0015));
#1307=CARTESIAN_POINT('Origin',(-0.00303557024302206,-0.062516417091788,
0.0015));
#1308=CARTESIAN_POINT('',(-0.00098557024302206,-0.062516417091788,0.));
#1309=CARTESIAN_POINT('',(-0.00098557024302206,-0.062516417091788,0.0015));
#1310=CARTESIAN_POINT('Origin',(-0.00303557024302206,-0.062516417091788,
0.));
#1311=CARTESIAN_POINT('Origin',(0.0108719206103249,-0.0625527165304272,
0.0015));
#1312=CARTESIAN_POINT('',(0.0129219206103249,-0.0625527165304272,0.0015));
#1313=CARTESIAN_POINT('Origin',(0.0108719206103249,-0.0625527165304272,
0.0015));
#1314=CARTESIAN_POINT('',(0.0129219206103249,-0.0625527165304272,0.));
#1315=CARTESIAN_POINT('',(0.0129219206103249,-0.0625527165304272,0.0015));
#1316=CARTESIAN_POINT('Origin',(0.0108719206103249,-0.0625527165304272,
0.));
#1317=CARTESIAN_POINT('Origin',(-0.00309559283778071,0.0662870407104492,
0.0015));
#1318=CARTESIAN_POINT('',(-0.00104559283778071,0.0662870407104492,0.0015));
#1319=CARTESIAN_POINT('Origin',(-0.00309559283778071,0.0662870407104492,
0.0015));
#1320=CARTESIAN_POINT('',(-0.00104559283778071,0.0662870407104492,0.));
#1321=CARTESIAN_POINT('',(-0.00104559283778071,0.0662870407104492,0.0015));
#1322=CARTESIAN_POINT('Origin',(-0.00309559283778071,0.0662870407104492,
0.));
#1323=CARTESIAN_POINT('Origin',(0.0109575968235731,0.0661713778972626,0.0015));
#1324=CARTESIAN_POINT('',(0.0130075968235731,0.0661713778972626,0.0015));
#1325=CARTESIAN_POINT('Origin',(0.0109575968235731,0.0661713778972626,0.0015));
#1326=CARTESIAN_POINT('',(0.0130075968235731,0.0661713778972626,0.));
#1327=CARTESIAN_POINT('',(0.0130075968235731,0.0661713778972626,0.0015));
#1328=CARTESIAN_POINT('Origin',(0.0109575968235731,0.0661713778972626,0.));
#1329=CARTESIAN_POINT('Origin',(0.168497620886922,0.067094284583627,0.0015));
#1330=CARTESIAN_POINT('Origin',(0.168497620886922,0.067094284583627,0.));
#1331=CARTESIAN_POINT('Origin',(0.168497620886922,0.067094284583627,0.0093));
#1332=CARTESIAN_POINT('Origin',(0.00395034815964976,0.00183428458362703,
0.));
#1333=CARTESIAN_POINT('Origin',(0.00395034815964976,0.00183428458362703,
0.0015));
#1334=CARTESIAN_POINT('',(0.0120935152262449,0.0661620795726776,0.0015));
#1335=CARTESIAN_POINT('Origin',(0.0109435152262449,0.0661620795726776,0.0015));
#1336=CARTESIAN_POINT('Origin',(0.00395034815964976,0.00183428458362703,
0.0015));
#1337=CARTESIAN_POINT('',(-0.0019596744351089,0.0662777423858643,0.0015));
#1338=CARTESIAN_POINT('Origin',(-0.0031096744351089,0.0662777423858643,
0.0015));
#1339=CARTESIAN_POINT('Origin',(0.00395034815964976,0.00183428458362703,
0.0015));
#1340=CARTESIAN_POINT('',(0.0120078390129967,-0.0625620148550122,0.0015));
#1341=CARTESIAN_POINT('Origin',(0.0108578390129967,-0.0625620148550122,
0.0015));
#1342=CARTESIAN_POINT('Origin',(0.00395034815964976,0.00183428458362703,
0.0015));
#1343=CARTESIAN_POINT('',(-0.00189965184035025,-0.062525715416373,0.0015));
#1344=CARTESIAN_POINT('Origin',(-0.00304965184035025,-0.062525715416373,
0.0015));
#1345=CARTESIAN_POINT('Origin',(0.00395034815964976,0.00183428458362703,
0.0015));
#1346=CARTESIAN_POINT('',(-0.15932266125679,-0.0603835470974445,0.0015));
#1347=CARTESIAN_POINT('Origin',(-0.16047266125679,-0.0603835470974445,0.0015));
#1348=CARTESIAN_POINT('Origin',(0.00395034815964976,0.00183428458362703,
0.0015));
#1349=CARTESIAN_POINT('',(0.169584480674021,-0.0603588859182758,0.0015));
#1350=CARTESIAN_POINT('Origin',(0.168434480674021,-0.0603588859182758,0.0015));
#1351=CARTESIAN_POINT('Origin',(0.00395034815964976,0.00183428458362703,
0.0015));
#1352=CARTESIAN_POINT('',(0.169411860175133,0.0637573126363754,0.0015));
#1353=CARTESIAN_POINT('Origin',(0.168261860175133,0.0637573126363754,0.0015));
#1354=CARTESIAN_POINT('Origin',(0.16317792728389,-0.0563229535929126,0.0093));
#1355=CARTESIAN_POINT('',(0.16317792728389,-0.0603229535929126,0.0015));
#1356=CARTESIAN_POINT('',(0.16717792728389,-0.0563229535929126,0.0015));
#1357=CARTESIAN_POINT('Origin',(0.16317792728389,-0.0563229535929126,0.0015));
#1358=CARTESIAN_POINT('',(0.16317792728389,-0.0603229535929126,0.0093));
#1359=CARTESIAN_POINT('',(0.16317792728389,-0.0603229535929126,0.0093));
#1360=CARTESIAN_POINT('',(0.16717792728389,-0.0563229535929126,0.0093));
#1361=CARTESIAN_POINT('Origin',(0.16317792728389,-0.0563229535929126,0.0093));
#1362=CARTESIAN_POINT('',(0.16717792728389,-0.0563229535929126,0.0093));
#1363=CARTESIAN_POINT('Origin',(0.00417792728389005,-0.0603229535929126,
0.0093));
#1364=CARTESIAN_POINT('',(-0.15482207271611,-0.0603229535929126,0.0015));
#1365=CARTESIAN_POINT('',(0.00417792728389005,-0.0603229535929126,0.0015));
#1366=CARTESIAN_POINT('',(-0.15482207271611,-0.0603229535929126,0.0093));
#1367=CARTESIAN_POINT('',(-0.15482207271611,-0.0603229535929126,0.0093));
#1368=CARTESIAN_POINT('',(0.00417792728389005,-0.0603229535929126,0.0093));
#1369=CARTESIAN_POINT('Origin',(-0.15482207271611,-0.0563229535929126,0.0093));
#1370=CARTESIAN_POINT('',(-0.15882207271611,-0.0563229535929126,0.0015));
#1371=CARTESIAN_POINT('Origin',(-0.15482207271611,-0.0563229535929126,0.0015));
#1372=CARTESIAN_POINT('',(-0.15882207271611,-0.0563229535929126,0.0093));
#1373=CARTESIAN_POINT('',(-0.15882207271611,-0.0563229535929126,0.0093));
#1374=CARTESIAN_POINT('Origin',(-0.15482207271611,-0.0563229535929126,0.0093));
#1375=CARTESIAN_POINT('Origin',(-0.15882207271611,0.00180204640708742,0.0093));
#1376=CARTESIAN_POINT('',(-0.15882207271611,0.0599270464070874,0.0015));
#1377=CARTESIAN_POINT('',(-0.15882207271611,0.00180204640708742,0.0015));
#1378=CARTESIAN_POINT('',(-0.15882207271611,0.0599270464070874,0.0093));
#1379=CARTESIAN_POINT('',(-0.15882207271611,0.0599270464070874,0.0093));
#1380=CARTESIAN_POINT('',(-0.15882207271611,0.00180204640708742,0.0093));
#1381=CARTESIAN_POINT('Origin',(-0.15482207271611,0.0599270464070874,0.0093));
#1382=CARTESIAN_POINT('',(-0.15482207271611,0.0639270464070874,0.0015));
#1383=CARTESIAN_POINT('Origin',(-0.15482207271611,0.0599270464070874,0.0015));
#1384=CARTESIAN_POINT('',(-0.15482207271611,0.0639270464070874,0.0093));
#1385=CARTESIAN_POINT('',(-0.15482207271611,0.0639270464070874,0.0093));
#1386=CARTESIAN_POINT('Origin',(-0.15482207271611,0.0599270464070874,0.0093));
#1387=CARTESIAN_POINT('Origin',(0.00417792728389005,0.0639270464070874,
0.0093));
#1388=CARTESIAN_POINT('',(0.115844957530498,0.0639270464070874,0.0093));
#1389=CARTESIAN_POINT('',(0.16317792728389,0.0639270464070874,0.0093));
#1390=CARTESIAN_POINT('',(0.00417792728389005,0.0639270464070874,0.0093));
#1391=CARTESIAN_POINT('',(0.115844957530498,0.0639270464070874,0.00606985780596746));
#1392=CARTESIAN_POINT('',(0.115844957530498,0.0639270464070874,0.0093));
#1393=CARTESIAN_POINT('',(0.114094957530498,0.0639270464070874,0.00431985780596745));
#1394=CARTESIAN_POINT('',(0.0616265135042105,0.0639270464070874,-0.0481485862203205));
#1395=CARTESIAN_POINT('',(0.105952046990395,0.0639270464070874,0.00431985780596745));
#1396=CARTESIAN_POINT('',(0.00417792728389005,0.0639270464070874,0.00431985780596744));
#1397=CARTESIAN_POINT('',(0.104202046990395,0.0639270464070874,0.00606985780596745));
#1398=CARTESIAN_POINT('',(0.052574916040126,0.0639270464070874,0.057696988756236));
#1399=CARTESIAN_POINT('',(0.104202046990395,0.0639270464070874,0.0093));
#1400=CARTESIAN_POINT('',(0.104202046990395,0.0639270464070874,0.0093));
#1401=CARTESIAN_POINT('',(0.00417792728389005,0.0639270464070874,0.0093));
#1402=CARTESIAN_POINT('',(0.16317792728389,0.0639270464070874,0.0015));
#1403=CARTESIAN_POINT('',(0.00417792728389005,0.0639270464070874,0.0015));
#1404=CARTESIAN_POINT('',(0.16317792728389,0.0639270464070874,0.0093));
#1405=CARTESIAN_POINT('Origin',(0.16317792728389,0.0599270464070874,0.0093));
#1406=CARTESIAN_POINT('',(0.16717792728389,0.0599270464070874,0.0015));
#1407=CARTESIAN_POINT('Origin',(0.16317792728389,0.0599270464070874,0.0015));
#1408=CARTESIAN_POINT('',(0.16717792728389,0.0599270464070874,0.0093));
#1409=CARTESIAN_POINT('',(0.16717792728389,0.0599270464070874,0.0093));
#1410=CARTESIAN_POINT('Origin',(0.16317792728389,0.0599270464070874,0.0093));
#1411=CARTESIAN_POINT('Origin',(-0.0031096744351089,0.0662777423858643,
0.0093));
#1412=CARTESIAN_POINT('',(-0.0019596744351089,0.0662777423858643,0.0093));
#1413=CARTESIAN_POINT('Origin',(-0.0031096744351089,0.0662777423858643,
0.0093));
#1414=CARTESIAN_POINT('',(-0.0019596744351089,0.0662777423858643,0.0093));
#1415=CARTESIAN_POINT('Origin',(0.0108578390129967,-0.0625620148550122,
0.0093));
#1416=CARTESIAN_POINT('',(0.0120078390129967,-0.0625620148550122,0.0093));
#1417=CARTESIAN_POINT('Origin',(0.0108578390129967,-0.0625620148550122,
0.0093));
#1418=CARTESIAN_POINT('',(0.0120078390129967,-0.0625620148550122,0.0093));
#1419=CARTESIAN_POINT('Origin',(-0.00304965184035025,-0.062525715416373,
0.0093));
#1420=CARTESIAN_POINT('',(-0.00189965184035025,-0.062525715416373,0.0093));
#1421=CARTESIAN_POINT('Origin',(-0.00304965184035025,-0.062525715416373,
0.0093));
#1422=CARTESIAN_POINT('',(-0.00189965184035025,-0.062525715416373,0.0093));
#1423=CARTESIAN_POINT('Origin',(-0.16047266125679,-0.0603835470974445,0.0093));
#1424=CARTESIAN_POINT('',(-0.15932266125679,-0.0603835470974445,0.0093));
#1425=CARTESIAN_POINT('Origin',(-0.16047266125679,-0.0603835470974445,0.0093));
#1426=CARTESIAN_POINT('',(-0.15932266125679,-0.0603835470974445,0.0093));
#1427=CARTESIAN_POINT('Origin',(0.168434480674021,-0.0603588859182758,0.0093));
#1428=CARTESIAN_POINT('',(0.169584480674021,-0.0603588859182758,0.0093));
#1429=CARTESIAN_POINT('Origin',(0.168434480674021,-0.0603588859182758,0.0093));
#1430=CARTESIAN_POINT('',(0.169584480674021,-0.0603588859182758,0.0093));
#1431=CARTESIAN_POINT('Origin',(0.168261860175133,0.0637573126363754,0.0093));
#1432=CARTESIAN_POINT('',(0.169411860175133,0.0637573126363754,0.0093));
#1433=CARTESIAN_POINT('Origin',(0.168261860175133,0.0637573126363754,0.0093));
#1434=CARTESIAN_POINT('',(0.169411860175133,0.0637573126363754,0.0093));
#1435=CARTESIAN_POINT('Origin',(-0.160485359627027,0.0640240656370347,0.0093));
#1436=CARTESIAN_POINT('',(-0.159335359627027,0.0640240656370347,0.0093));
#1437=CARTESIAN_POINT('Origin',(-0.160485359627027,0.0640240656370347,0.0093));
#1438=CARTESIAN_POINT('',(-0.159335359627027,0.0640240656370347,0.0015));
#1439=CARTESIAN_POINT('',(-0.159335359627027,0.0640240656370347,0.0093));
#1440=CARTESIAN_POINT('Origin',(-0.160485359627027,0.0640240656370347,0.0015));
#1441=CARTESIAN_POINT('Origin',(0.16717792728389,0.0018020464070874,0.0093));
#1442=CARTESIAN_POINT('',(0.16717792728389,0.0018020464070874,0.0015));
#1443=CARTESIAN_POINT('',(0.16717792728389,0.0018020464070874,0.0093));
#1444=CARTESIAN_POINT('Origin',(0.0109435152262449,0.0661620795726776,0.0093));
#1445=CARTESIAN_POINT('',(0.0120935152262449,0.0661620795726776,0.0093));
#1446=CARTESIAN_POINT('Origin',(0.0109435152262449,0.0661620795726776,0.0093));
#1447=CARTESIAN_POINT('',(0.0120935152262449,0.0661620795726776,0.0093));
#1448=CARTESIAN_POINT('Origin',(0.00395034815964976,0.00183428458362703,
0.0093));
#1449=CARTESIAN_POINT('',(0.115844957530498,0.00183428458362703,0.0093));
#1450=CARTESIAN_POINT('',(0.104202046990395,0.00183428458362703,0.0093));
#1451=CARTESIAN_POINT('Origin',(0.00395034815964976,0.00183428458362703,
0.0015));
#1452=CARTESIAN_POINT('Origin',(0.00395034815964976,0.00183428458362703,
0.0015));
#1453=CARTESIAN_POINT('Origin',(0.110023502260447,0.078,0.00431985780596745));
#1454=CARTESIAN_POINT('',(0.105952046990395,0.0639270464070874,0.00431985780596745));
#1455=CARTESIAN_POINT('',(0.114094957530498,0.078,0.00431985780596745));
#1456=CARTESIAN_POINT('Origin',(0.115844957530498,0.078,0.00705278804525752));
#1457=CARTESIAN_POINT('',(0.115844957530498,0.078,0.00606985780596746));
#1458=CARTESIAN_POINT('Origin',(0.104202046990395,0.078,0.00705278804525751));
#1459=CARTESIAN_POINT('',(0.104202046990395,0.070094284583627,0.00606985780596745));
#1460=CARTESIAN_POINT('Origin',(0.105952046990395,0.078,0.00431985780596745));
#1461=CARTESIAN_POINT('Origin',(0.115844957530498,0.078,0.00606985780596746));
#1462=UNCERTAINTY_MEASURE_WITH_UNIT(LENGTH_MEASURE(1.E-5),#1466,
'DISTANCE_ACCURACY_VALUE',
'Maximum model space distance between geometric entities at asserted c
onnectivities');
#1463=UNCERTAINTY_MEASURE_WITH_UNIT(LENGTH_MEASURE(1.E-5),#1466,
'DISTANCE_ACCURACY_VALUE',
'Maximum model space distance between geometric entities at asserted c
onnectivities');
#1464=(
GEOMETRIC_REPRESENTATION_CONTEXT(3)
GLOBAL_UNCERTAINTY_ASSIGNED_CONTEXT((#1462))
GLOBAL_UNIT_ASSIGNED_CONTEXT((#1466,#1467,#1468))
REPRESENTATION_CONTEXT('','3D')
);
#1465=(
GEOMETRIC_REPRESENTATION_CONTEXT(3)
GLOBAL_UNCERTAINTY_ASSIGNED_CONTEXT((#1463))
GLOBAL_UNIT_ASSIGNED_CONTEXT((#1466,#1467,#1468))
REPRESENTATION_CONTEXT('','3D')
);
#1466=(
LENGTH_UNIT()
NAMED_UNIT(*)
SI_UNIT($,.METRE.)
);
#1467=(
NAMED_UNIT(*)
PLANE_ANGLE_UNIT()
SI_UNIT($,.RADIAN.)
);
#1468=(
NAMED_UNIT(*)
SI_UNIT($,.STERADIAN.)
SOLID_ANGLE_UNIT()
);
#1469=SHAPE_DEFINITION_REPRESENTATION(#1470,#1471);
#1470=PRODUCT_DEFINITION_SHAPE('',$,#1473);
#1471=SHAPE_REPRESENTATION('',(#866),#1464);
#1472=PRODUCT_DEFINITION_CONTEXT('part definition',#1477,'design');
#1473=PRODUCT_DEFINITION('bottom','(Unsaved)',#1474,#1472);
#1474=PRODUCT_DEFINITION_FORMATION('',$,#1479);
#1475=PRODUCT_RELATED_PRODUCT_CATEGORY('(Unsaved)','(Unsaved)',(#1479));
#1476=APPLICATION_PROTOCOL_DEFINITION('international standard',
'automotive_design',2009,#1477);
#1477=APPLICATION_CONTEXT(
'Core Data for Automotive Mechanical Design Process');
#1478=PRODUCT_CONTEXT('part definition',#1477,'mechanical');
#1479=PRODUCT('bottom','(Unsaved)','STEP AP242 Edition 2',(#1478));
#1480=PRESENTATION_STYLE_ASSIGNMENT((#1482));
#1481=PRESENTATION_STYLE_ASSIGNMENT((#1483));
#1482=SURFACE_STYLE_USAGE(.BOTH.,#1484);
#1483=SURFACE_STYLE_USAGE(.BOTH.,#1485);
#1484=SURFACE_SIDE_STYLE('',(#1486));
#1485=SURFACE_SIDE_STYLE('',(#1487));
#1486=SURFACE_STYLE_FILL_AREA(#1488);
#1487=SURFACE_STYLE_FILL_AREA(#1489);
#1488=FILL_AREA_STYLE('Steel - Satin',(#1490));
#1489=FILL_AREA_STYLE('Opaque(157,207,237)',(#1491));
#1490=FILL_AREA_STYLE_COLOUR('Steel - Satin',#1492);
#1491=FILL_AREA_STYLE_COLOUR('Opaque(157,207,237)',#1493);
#1492=COLOUR_RGB('Steel - Satin',0.627450980392157,0.627450980392157,0.627450980392157);
#1493=COLOUR_RGB('Opaque(157,207,237)',0.615686274509804,0.811764705882353,
0.929411764705882);
ENDSEC;
END-ISO-10303-21;
